<svg width="100" height="100" viewBox="0 0 100 100" fill="none" xmlns="http://www.w3.org/2000/svg">
<path d="M23.5 34.5L49.5 20L76 36V65L47.5 81.5L24.5 68L23.5 34.5Z" fill="#213147"/>
<path d="M54.7833 54.8917L51.6583 63.4125C51.561 63.653 51.561 63.922 51.6583 64.1625L57.0167 78.8375L63.25 75.2667L55.7833 54.8917C55.7438 54.7913 55.6749 54.7052 55.5857 54.6445C55.4966 54.5839 55.3912 54.5514 55.2833 54.5514C55.1755 54.5514 55.0701 54.5839 54.9809 54.6445C54.8918 54.7052 54.8229 54.7913 54.7833 54.8917ZM61.0333 40.5375C60.9954 40.4354 60.9272 40.3474 60.8378 40.2852C60.7485 40.2231 60.6422 40.1898 60.5333 40.1898C60.4245 40.1898 60.3182 40.2231 60.2288 40.2852C60.1394 40.3474 60.0712 40.4354 60.0333 40.5375L56.9083 49.0542C56.811 49.2947 56.811 49.5636 56.9083 49.8042L65.7125 73.8375L71.9292 70.2667L61.0333 40.5167V40.5375Z" fill="#12AAFF"/>
<path d="M50 21.4458C50.1583 21.4458 50.3069 21.4875 50.4458 21.5708L74.5542 35.5875C74.6907 35.6643 74.8041 35.7764 74.8825 35.912C74.9609 36.0475 75.0015 36.2017 75 36.3583V63.625C75.0007 63.7809 74.9598 63.9342 74.8814 64.069C74.803 64.2038 74.69 64.3152 74.5542 64.3917L50.4458 78.4625C50.3095 78.5384 50.156 78.5782 50 78.5782C49.844 78.5782 49.6905 78.5384 49.5542 78.4625L25.4458 64.4167C25.3087 64.3395 25.1949 64.2268 25.1165 64.0904C25.038 63.954 24.9978 63.799 25 63.6417V36.3583C25 36.0333 25.1792 35.75 25.4458 35.5875L49.5542 21.5708C49.6862 21.482 49.8409 21.4329 50 21.4292V21.4458ZM50 17.8583C49.1417 17.8642 48.2994 18.0909 47.5542 18.5167L23.875 32.1417C23.1331 32.568 22.5165 33.1822 22.0872 33.9223C21.6579 34.6625 21.4309 35.5027 21.4292 36.3583V63.625C21.4292 65.3583 22.3542 66.9833 23.875 67.8583L47.5542 81.4833C48.2972 81.9143 49.141 82.1413 50 82.1413C50.859 82.1413 51.7028 81.9143 52.4458 81.4833L76.125 67.8583C76.8722 67.4339 77.4927 66.8178 77.9227 66.0737C78.3526 65.3296 78.5763 64.4844 78.5708 63.625V36.3583C78.5708 34.625 77.6417 33 76.125 32.1417L52.4458 18.5167C51.7006 18.0909 50.8583 17.8642 50 17.8583Z" fill="#9DCCED"/>
<path d="M34.3375 73.875L36.5167 67.9292L40.8917 71.5542L36.8042 75.3042L34.3375 73.875Z" fill="#213147"/>
<path d="M48.0167 33.9292H42C41.7788 33.934 41.5644 34.0065 41.3856 34.1369C41.2068 34.2673 41.0723 34.4492 41 34.6583L28.1417 70.25L34.3375 73.875L48.5167 34.6792C48.5616 34.5527 48.5599 34.4143 48.5118 34.289C48.4636 34.1636 48.3723 34.0597 48.2542 33.9958C48.1762 33.9531 48.0889 33.9302 48 33.9292H48.0167ZM58.5167 33.9292H52.5167C52.2975 33.9328 52.0845 34.0028 51.906 34.1301C51.7274 34.2573 51.5917 34.4357 51.5167 34.6417L36.8042 75.25L43.0167 78.875L59.0167 34.6625C59.0637 34.5394 59.0643 34.4034 59.0183 34.2799C58.9723 34.1564 58.8828 34.0539 58.7667 33.9917C58.6896 33.951 58.6038 33.9296 58.5167 33.9292Z" fill="white"/>
</svg>
