<svg width="100" height="100" viewBox="0 0 100 100" fill="none" xmlns="http://www.w3.org/2000/svg">
<g clip-path="url(#clip0_13_2)">
<path d="M50.0871 22.0329C50.2472 22.0329 50.3949 22.0733 50.5425 22.1526L74.5027 36.0875C74.7841 36.2476 74.9582 36.543 74.9442 36.8632L74.8509 64.5854C74.8509 64.9072 74.6768 65.201 74.3954 65.3611L50.3544 79.1344C50.2207 79.2152 50.0606 79.254 49.899 79.254C49.7373 79.254 49.5912 79.2136 49.4435 79.1344L25.4849 65.201C25.2035 65.0409 25.0294 64.7455 25.0434 64.4253L25.1366 36.7031C25.1366 36.3813 25.3107 36.0875 25.5921 35.9274L49.6456 22.1401C49.7793 22.0733 49.9394 22.0329 50.0871 22.0329ZM50.101 17.9771C49.2445 17.9771 48.3879 18.1916 47.6247 18.6331L23.5837 32.4063C22.0447 33.2909 21.0933 34.9231 21.0933 36.6907L21 64.4128C21 66.1803 21.9374 67.8126 23.4624 68.7096L47.4226 82.6445C48.1858 83.086 49.0424 83.3145 49.899 83.3145C50.7555 83.3145 51.6121 83.1 52.3753 82.6585L76.4163 68.8852C77.9553 68.0023 78.9067 66.3684 78.9067 64.6025L79 36.8803C79 35.1128 78.0626 33.4805 76.5376 32.5836L52.5774 18.6471C51.8142 18.2056 50.9576 17.9771 50.101 17.9771Z" fill="#1B4ADD"/>
<path d="M54.9589 33.0888H51.4519C51.1845 33.0888 50.956 33.2489 50.8627 33.5038L39.5658 64.4641C39.485 64.6646 39.6467 64.8792 39.8596 64.8792H43.3667C43.6341 64.8792 43.8626 64.7191 43.9559 64.4641L55.2527 33.5038C55.3336 33.3033 55.1719 33.0888 54.9589 33.0888ZM48.8154 33.0888H45.3083C45.0409 33.0888 44.8124 33.2489 44.7191 33.5038L33.4347 64.4517C33.3539 64.6522 33.5155 64.8667 33.7285 64.8667H37.2356C37.5029 64.8667 37.7315 64.7066 37.8247 64.4517L49.1092 33.5038C49.19 33.3033 49.0423 33.0888 48.8154 33.0888ZM53.3671 45.0821C53.2738 44.8007 52.8712 44.8007 52.7779 45.0821L50.9575 50.0877C50.9047 50.2214 50.9047 50.3815 50.9575 50.5167L56.044 64.4517C56.1373 64.6926 56.3658 64.8667 56.6332 64.8667H60.1402C60.3547 64.8667 60.5148 64.6522 60.434 64.4517L53.3671 45.0821ZM66.5651 64.4517L56.4326 36.6627C56.3393 36.3813 55.9367 36.3813 55.8434 36.6627L54.0231 41.6683C53.9702 41.802 53.9702 41.9621 54.0231 42.0973L62.1751 64.4517C62.2684 64.6926 62.4969 64.8667 62.7643 64.8667H66.2713C66.4983 64.8807 66.646 64.6522 66.5651 64.4517Z" fill="#1B4ADD"/>
</g>
<defs>
<clipPath id="clip0_13_2">
<rect width="58" height="65.3359" fill="white" transform="translate(21 17.9771)"/>
</clipPath>
</defs>
</svg>
