<svg width="1695" height="1695" viewBox="0 0 1695 1695" fill="none" xmlns="http://www.w3.org/2000/svg">
<path d="M500.731 406.447L847.5 211.875L1194.27 406.447L1067.14 478.484L847.5 355.596L628.209 478.484L500.731 406.447ZM1194.27 652.221L1067.14 580.184L847.5 703.072L628.209 580.184L500.731 652.221V795.943L719.669 918.831V1164.25L847.5 1236.29L974.978 1164.25V918.831L1194.27 795.943V652.221ZM1194.27 1041.72V897.643L1067.14 969.681V1113.4L1194.27 1041.72ZM1285.02 1092.57L1065.73 1215.1V1359.18L1412.5 1164.25V775.109L1285.02 846.793V1092.57ZM1157.54 529.334L1284.67 601.372V745.093L1412.5 673.409V529.334L1285.02 457.297L1157.54 529.687V529.334ZM719.669 1267.37V1411.09L847.5 1483.12L974.978 1411.09V1267.72L847.5 1339.4L720.022 1267.37H719.669ZM500.731 1041.37L627.856 1113.4V969.681L500.731 897.643V1041.72V1041.37ZM719.669 529.334L847.5 601.372L974.978 529.334L847.5 457.297L720.022 529.687L719.669 529.334ZM409.978 601.372L537.456 529.334L410.331 457.297L282.5 529.687V673.762L409.978 745.447V601.372ZM409.978 846.793L282.5 775.109V1164.25L629.269 1359.18V1214.75L410.331 1092.22V846.44L409.978 846.793Z" fill="#F0B90B"/>
</svg>
