<svg width="100" height="100" viewBox="0 0 100 100" fill="none" xmlns="http://www.w3.org/2000/svg">
<path d="M50 14.2833V40.6792L72.3208 50.6625L50 14.2833Z" fill="#8FFCF3"/>
<path d="M50 14.2833L27.6792 50.6583L50 40.6833V14.2833Z" fill="#CABCF8"/>
<path d="M50 67.7667V85.7125L72.3208 54.8208L50 67.7667Z" fill="#CBA7F5"/>
<path d="M50 85.7125V67.7667L27.6792 54.8208L50 85.7125Z" fill="#74A0F3"/>
<path d="M50 63.6083L72.3208 50.6625L50 40.6792V63.6083Z" fill="#CBA7F5"/>
<path d="M27.6792 50.6625L50 63.6083V40.6792L27.6792 50.6625Z" fill="#74A0F3"/>
<path fill-rule="evenodd" clip-rule="evenodd" d="M50 63.6083L27.6792 50.6625L50 14.2833L72.3208 50.6583L50 63.6083ZM29.1583 49.6083L49.6417 16.2333V40.5L29.1583 49.6083ZM28.8542 50.5167L49.6417 41.2833V62.5708L28.8542 50.5167ZM50.3542 41.2833V62.5708L71.125 50.5167L50.3542 41.2833ZM50.3542 40.5L70.8375 49.6083L50.3542 16.2333V40.5Z" fill="#202699"/>
<path fill-rule="evenodd" clip-rule="evenodd" d="M50 67.4833L27.6792 54.8042L50 85.7125L72.3208 54.8L50 67.4833ZM30.1792 57.0333L49.6417 68.1083V84L30.1792 57.0333ZM50.3542 68.1083V84L69.8208 57.0333L50.3542 68.1083Z" fill="#202699"/>
</svg>
