<svg width="1820" height="1695" viewBox="0 0 1820 1695" fill="none" xmlns="http://www.w3.org/2000/svg">
<g filter="url(#filter0_d_1462_41)">
<path d="M1541.08 850.421C1541.08 856.82 1540.99 863.218 1540.81 869.616H1540.07H1233.88V855.631H938.466C938.466 852.706 938.557 849.781 938.557 846.947C938.557 844.114 938.557 841.098 938.466 838.265H1233.88V824.372H1234.34H1540.53C1540.9 833.055 1541.08 841.738 1541.08 850.421ZM933.255 787.445L1222.36 751.89L1224.1 765.783L1529.38 728.217C1526.46 713.227 1522.98 698.42 1519.05 683.887L1218.52 720.904L1220.26 734.798L929.782 770.536C931.062 776.203 932.25 781.869 933.255 787.628V787.445ZM918.174 731.507L1194.48 662.499L1197.87 676.026L1491.08 602.813C1485.05 588.646 1478.56 574.661 1471.62 561.042L1186.98 632.153L1190.37 645.68L911.776 715.329C914.061 720.722 916.163 726.114 918.174 731.598V731.507ZM893.678 679.134L1151.98 581.608L1156.91 594.678L1430.2 491.486C1421.34 478.507 1412.02 465.893 1402.15 453.645L1140.92 552.268L1145.86 565.338L884.447 664.053C887.646 668.988 890.753 674.016 893.678 679.134ZM859.768 630.691L1087.91 511.777L1094.3 524.208L1346.58 392.68C1334.97 381.437 1322.9 370.744 1310.47 360.415L1073.37 483.991L1079.77 496.422L847.794 617.346C851.816 621.734 855.838 626.121 859.677 630.691H859.768ZM804.744 578.409L1011.31 447.064L1018.81 458.855L1246.76 313.891C1232.41 304.751 1217.79 296.251 1202.71 288.299L994.586 420.649L1002.08 432.44L789.571 567.532C794.781 571.005 799.808 574.661 804.835 578.409H804.744ZM755.935 547.881L929.051 405.933L937.916 416.719L1132.88 256.765C1116.33 250.459 1099.33 244.792 1082.15 239.856L909.216 381.712L918.083 392.498L738.66 539.654C744.51 542.214 750.268 544.956 755.935 547.881ZM691.315 522.745L828.052 386.648L837.832 396.519L1011.59 223.861C992.758 220.753 973.655 218.468 954.278 217.005L806.115 364.437L815.896 374.308L671.48 517.992C678.153 519.364 684.734 520.917 691.315 522.745ZM615.725 511.32L724.768 379.152L735.553 388.019L877.5 216C855.93 217.005 834.633 219.108 813.702 222.215L700.638 359.227L711.423 368.093L593.331 511.228C596.622 511.137 600.004 511.045 603.294 511.045C607.499 511.045 611.612 511.045 615.725 511.228V511.32ZM550.372 515.25L634.371 385.277L646.071 392.863L747.618 235.651C724.401 241.684 701.734 248.996 679.615 257.496L608.139 368.185L619.838 375.771L526.791 519.82C534.56 517.992 542.42 516.439 550.372 515.159V515.25ZM477.8 535.45L538.216 422.203L550.464 428.784L630.441 278.976C604.756 291.498 580.078 305.665 556.497 321.387L510.521 407.487L522.861 414.068L451.75 547.333C460.159 543.037 468.842 539.106 477.708 535.541L477.8 535.45ZM425.7 562.048L451.384 489.109L464.546 493.77L514.451 352.097C489.133 372.206 465.369 394.142 443.341 417.815L421.862 478.78L435.023 483.442L401.387 578.866C409.248 572.925 417.291 567.35 425.608 562.139L425.7 562.048ZM361.628 614.238L372.961 561.225L386.58 564.15L409.431 457.393C385.392 487.921 364.095 520.734 345.907 555.375L356.052 557.569L335.212 645.315C343.347 634.438 352.213 624.019 361.628 614.238ZM314.555 676.209V606.013C297.555 650.891 285.49 706.737 279 761.487C286.952 731.142 299.017 702.533 314.555 676.209ZM279.457 934.237C286.129 980.943 297.829 1026 314.098 1068.87V1017.05C299.108 991.455 287.318 963.668 279.457 934.237ZM337.406 1051.68L355.595 1136.51L345.449 1138.7C363.638 1173.43 384.935 1206.16 408.974 1236.69L386.123 1129.93L372.504 1132.85L360.988 1079.2C352.67 1070.43 344.718 1061.29 337.406 1051.59V1051.68ZM400.747 1114.76L434.566 1210.73L421.404 1215.39L442.883 1276.35C464.912 1300.03 488.676 1321.97 513.994 1342.07L464.089 1200.4L450.927 1205.06L425.152 1131.75C416.835 1126.46 408.699 1120.88 400.839 1114.94L400.747 1114.76ZM451.202 1146.47L522.495 1280.1L510.155 1286.69L556.131 1372.79C579.712 1388.5 604.391 1402.67 630.075 1415.2L550.099 1265.39L537.759 1271.97L477.159 1158.44C468.294 1154.88 459.61 1150.86 451.11 1146.56L451.202 1146.47ZM526.242 1174.07L619.381 1318.31L607.681 1325.89L679.158 1436.59C701.277 1445.08 723.945 1452.39 747.161 1458.43L645.613 1301.22L633.914 1308.8L549.824 1178.65C541.872 1177.37 533.92 1175.81 526.151 1173.98L526.242 1174.07ZM592.783 1182.85L710.874 1325.98L700.089 1334.85L813.153 1471.87C834.084 1474.97 855.381 1477.07 876.952 1478.08L735.005 1305.97L724.219 1314.84L615.177 1182.67C611.246 1182.85 607.225 1182.85 603.203 1182.85C599.729 1182.85 596.165 1182.85 592.691 1182.67L592.783 1182.85ZM671.115 1176.09L815.438 1319.68L805.658 1329.55L953.821 1476.98C973.198 1475.52 992.301 1473.24 1011.13 1470.13L837.466 1297.38L827.594 1307.34L690.949 1171.34C684.459 1173.07 677.786 1174.71 671.115 1176.09ZM738.386 1154.61L917.626 1301.67L908.76 1312.46L1081.69 1454.31C1098.88 1449.38 1115.87 1443.71 1132.42 1437.41L937.368 1277.45L928.503 1288.23L755.57 1146.38C749.903 1149.31 744.145 1152.04 738.295 1154.61H738.386ZM789.206 1126.64L1001.44 1261.64L993.946 1273.43L1202.07 1405.78C1217.15 1397.83 1231.87 1389.23 1246.12 1380.19L1018.17 1235.23L1010.67 1247.01L804.379 1115.85C799.352 1119.6 794.325 1123.25 789.114 1126.73L789.206 1126.64ZM847.703 1076.92L1079.4 1197.66L1073.01 1210.09L1310.1 1333.66C1322.53 1323.33 1334.6 1312.64 1346.21 1301.4L1093.94 1169.87L1087.54 1182.3L859.677 1063.57C855.838 1068.14 851.907 1072.62 847.794 1076.92H847.703ZM884.355 1030.12L1145.4 1128.74L1140.47 1141.81L1401.69 1240.43C1411.47 1228.19 1420.8 1215.57 1429.75 1202.59L1156.46 1099.4L1151.52 1112.47L893.587 1015.04C890.662 1020.15 887.555 1025.18 884.355 1030.12ZM911.685 978.932L1189.82 1048.4L1186.44 1061.93L1471.07 1133.04C1478.11 1119.42 1484.59 1105.43 1490.63 1091.27L1197.41 1018.05L1194.02 1031.58L918.083 962.663C916.072 968.147 913.878 973.54 911.685 978.932ZM929.782 923.725L1219.8 959.372L1218.06 973.265L1518.59 1010.28C1522.52 995.659 1526 980.852 1528.92 965.953L1223.64 928.387L1221.9 942.28L933.255 906.725C932.25 912.483 931.062 918.15 929.782 923.817V923.725Z" fill="white"/>
</g>
<defs>
<filter id="filter0_d_1462_41" x="234.079" y="216" width="1351.92" height="1351.92" filterUnits="userSpaceOnUse" color-interpolation-filters="sRGB">
<feFlood flood-opacity="0" result="BackgroundImageFix"/>
<feColorMatrix in="SourceAlpha" type="matrix" values="0 0 0 0 0 0 0 0 0 0 0 0 0 0 0 0 0 0 127 0" result="hardAlpha"/>
<feOffset dy="44.9213"/>
<feGaussianBlur stdDeviation="22.4607"/>
<feComposite in2="hardAlpha" operator="out"/>
<feColorMatrix type="matrix" values="0 0 0 0 0 0 0 0 0 0 0 0 0 0 0 0 0 0 0.25 0"/>
<feBlend mode="normal" in2="BackgroundImageFix" result="effect1_dropShadow_1462_41"/>
<feBlend mode="normal" in="SourceGraphic" in2="effect1_dropShadow_1462_41" result="shape"/>
</filter>
</defs>
</svg>
