<svg width="1730" height="1730" viewBox="0 0 1730 1730" fill="none" xmlns="http://www.w3.org/2000/svg">
<path d="M1496 868.382C1496 874.78 1495.91 881.177 1495.73 887.575H1494.99H1188.82V873.591H893.424C893.424 870.667 893.515 867.742 893.515 864.908C893.515 862.075 893.515 859.06 893.424 856.226H1188.82V842.334H1189.28H1495.45C1495.82 851.016 1496 859.699 1496 868.382ZM888.214 805.41L1177.3 769.857L1179.04 783.748L1484.3 746.185C1481.38 731.196 1477.91 716.39 1473.97 701.858L1173.46 738.873L1175.2 752.766L884.741 788.501C886.021 794.168 887.21 799.834 888.214 805.593V805.41ZM873.134 749.475L1149.43 680.471L1152.81 693.997L1446 620.789C1439.97 606.623 1433.48 592.639 1426.54 579.021L1141.93 650.127L1145.31 663.654L866.736 733.298C869.021 738.69 871.123 744.082 873.134 749.566V749.475ZM848.64 697.105L1106.93 599.585L1111.86 612.655L1385.13 509.468C1376.27 496.49 1366.95 483.878 1357.08 471.63L1095.86 570.247L1100.81 583.317L839.409 682.025C842.608 686.96 845.715 691.987 848.64 697.105ZM814.732 648.665L1042.86 529.759L1049.25 542.189L1301.51 410.669C1289.9 399.427 1277.84 388.734 1265.41 378.406L1028.32 501.974L1034.72 514.404L802.759 635.321C806.781 639.708 810.802 644.095 814.64 648.665H814.732ZM759.712 596.387L966.267 465.05L973.761 476.84L1201.7 331.885C1187.35 322.746 1172.73 314.246 1157.65 306.294L949.542 438.637L957.036 450.426L744.54 585.51C749.749 588.983 754.776 592.639 759.802 596.387H759.712ZM710.906 565.86L884.01 423.921L892.875 434.706L1087.82 274.763C1071.28 268.456 1054.28 262.79 1037.1 257.854L864.177 399.701L873.043 410.487L693.632 557.634C699.481 560.193 705.239 562.935 710.906 565.86ZM646.289 540.726L783.017 404.637L792.797 414.508L966.541 241.86C947.713 238.753 928.612 236.468 909.236 235.005L761.082 382.428L770.862 392.298L626.456 535.974C633.128 537.345 639.708 538.898 646.289 540.726ZM570.704 529.301L679.74 397.142L690.524 406.008L832.463 234C810.894 235.005 789.598 237.107 768.668 240.215L655.611 377.218L666.396 386.083L548.312 529.21C551.602 529.119 554.984 529.027 558.274 529.027C562.478 529.027 566.591 529.027 570.704 529.21V529.301ZM505.355 533.232L589.349 403.266L601.048 410.852L702.589 253.65C679.374 259.682 656.708 266.994 634.59 275.494L563.118 386.175L574.817 393.761L481.776 537.801C489.544 535.974 497.404 534.42 505.355 533.14V533.232ZM432.787 553.43L493.2 440.19L505.447 446.771L585.419 296.972C559.736 309.493 535.059 323.659 511.479 339.38L465.507 425.475L477.845 432.056L406.739 565.312C415.148 561.016 423.83 557.086 432.695 553.521L432.787 553.43ZM380.691 580.026L406.374 507.092L419.534 511.753L469.437 370.089C444.12 390.196 420.357 412.131 398.33 435.803L376.853 496.764L390.014 501.425L356.38 596.843C364.24 590.903 372.282 585.328 380.599 580.117L380.691 580.026ZM316.622 632.213L327.955 579.204L341.573 582.128L364.423 475.378C340.385 505.904 319.09 538.715 300.902 573.354L311.047 575.548L290.209 663.288C298.343 652.412 307.208 641.993 316.622 632.213ZM269.553 694.18V623.988C252.553 668.864 240.489 724.707 234 779.453C241.951 749.11 254.016 720.503 269.553 694.18ZM234.457 952.192C241.129 998.896 252.828 1043.95 269.096 1086.82V1035C254.107 1009.41 242.317 981.622 234.457 952.192ZM292.402 1069.63L310.59 1154.45L300.445 1156.64C318.633 1191.37 339.929 1224.1 363.966 1254.62L341.117 1147.87L327.499 1150.79L315.982 1097.14C307.665 1088.37 299.714 1079.24 292.402 1069.54V1069.63ZM355.74 1132.7L389.556 1228.67L376.395 1233.32L397.873 1294.28C419.9 1317.96 443.663 1339.9 468.979 1360L419.077 1218.34L405.916 1223L380.143 1149.7C371.826 1144.4 363.691 1138.82 355.831 1132.88L355.74 1132.7ZM406.191 1164.41L477.48 1298.04L465.141 1304.62L511.114 1390.71C534.694 1406.43 559.371 1420.6 585.053 1433.12L505.082 1283.32L492.743 1289.9L432.147 1176.39C423.282 1172.82 414.599 1168.8 406.099 1164.5L406.191 1164.41ZM481.227 1192.01L574.36 1336.24L562.661 1343.82L634.133 1454.51C656.25 1463.01 678.917 1470.32 702.132 1476.35L600.591 1319.15L588.892 1326.74L504.807 1196.59C496.856 1195.31 488.904 1193.75 481.136 1191.92L481.227 1192.01ZM547.764 1200.79L665.847 1343.91L655.063 1352.78L768.12 1489.79C789.05 1492.89 810.345 1494.99 831.914 1496L689.976 1323.9L679.191 1332.77L570.156 1200.61C566.226 1200.79 562.204 1200.79 558.182 1200.79C554.709 1200.79 551.146 1200.79 547.672 1200.61L547.764 1200.79ZM626.09 1194.03L770.405 1337.61L760.625 1347.48L908.779 1494.9C928.155 1493.44 947.257 1491.16 966.085 1488.05L792.431 1315.31L782.56 1325.27L645.923 1189.28C639.434 1191.01 632.762 1192.65 626.09 1194.03ZM693.357 1172.55L872.586 1319.61L863.721 1330.39L1036.64 1472.24C1053.82 1467.3 1070.82 1461.63 1087.37 1455.33L892.327 1295.38L883.462 1306.17L710.54 1164.32C704.874 1167.25 699.116 1169.99 693.266 1172.55H693.357ZM744.174 1144.58L956.396 1279.58L948.902 1291.37L1157.01 1423.71C1172.09 1415.76 1186.81 1407.16 1201.06 1398.11L973.121 1253.16L965.627 1264.95L759.346 1133.8C754.319 1137.54 749.293 1141.2 744.082 1144.67L744.174 1144.58ZM802.668 1094.86L1034.36 1215.6L1027.96 1228.03L1265.04 1351.59C1277.47 1341.27 1289.53 1330.57 1301.14 1319.33L1048.89 1187.81L1042.49 1200.24L814.64 1081.51C810.802 1086.09 806.872 1090.56 802.759 1094.86H802.668ZM839.317 1048.07L1100.35 1146.68L1095.41 1159.75L1356.62 1258.37C1366.4 1246.12 1375.72 1233.51 1384.68 1220.53L1111.4 1117.34L1106.47 1130.41L848.549 1032.99C845.624 1038.1 842.517 1043.13 839.317 1048.07ZM866.645 996.885L1144.76 1066.35L1141.39 1079.88L1425.99 1150.98C1433.03 1137.36 1439.51 1123.37 1445.55 1109.21L1152.35 1036L1148.97 1049.53L873.043 980.616C871.032 986.1 868.838 991.493 866.645 996.885ZM884.741 941.681L1174.74 977.326L1173 991.218L1473.51 1028.23C1477.45 1013.61 1480.92 998.804 1483.85 983.907L1178.58 946.342L1176.85 960.235L888.214 924.682C887.21 930.44 886.021 936.106 884.741 941.773V941.681Z" fill="#141414"/>
</svg>
