<svg width="100" height="100" viewBox="0 0 100 100" fill="none" xmlns="http://www.w3.org/2000/svg">
<path d="M78.575 61.1667V22.5083C78.5662 20.956 77.9434 19.4702 76.8425 18.3756C75.7417 17.281 74.2524 16.6666 72.7 16.6667H32.3667C28.1756 16.7345 24.1795 18.4486 21.2418 21.4385C18.3041 24.4285 16.6607 28.4542 16.6667 32.6458C16.6667 35.5833 17.4583 38.1125 18.6583 40.3333C19.6792 42.1667 21.2875 43.9042 22.8667 45.2083C23.3292 45.5667 23.1 45.4125 24.4792 46.2542C26.3667 47.4042 28.5375 47.9917 28.5375 47.9917L28.5125 71.1167C28.5625 72.2167 28.6667 73.2625 28.9708 74.2583C29.8667 77.5292 32.1375 80.0292 35.2 81.2292C36.4792 81.7417 37.9333 82.0708 39.4917 82.0958L71.7083 82.2C73.2353 82.1984 74.747 81.8959 76.1571 81.3099C77.5671 80.7239 78.8479 79.8659 79.9263 78.7848C81.0047 77.7037 81.8595 76.4208 82.4419 75.0093C83.0244 73.5977 83.323 72.0853 83.3208 70.5583C83.3209 68.7295 82.8911 66.9263 82.066 65.2941C81.2409 63.662 80.0436 62.2467 78.5708 61.1625" fill="#FFEEDA"/>
<path d="M79.3751 70.8417C79.307 72.8351 78.4673 74.7241 77.033 76.1101C75.5988 77.4962 73.6822 78.2709 71.6876 78.2708L49.5293 78.1917C51.2876 76.15 52.3626 73.4958 52.3626 70.5833C52.3626 66.0417 49.6543 62.9 49.6543 62.9H71.7126C75.9501 62.9 79.3959 66.3458 79.3959 70.5833L79.3751 70.8417Z" fill="#EBC28E"/>
<path d="M24.9875 41.9417C22.4375 39.5167 20.65 36.4 20.65 32.675V32.2917C20.8542 25.9583 26.0625 20.8542 32.3917 20.675H72.725C73.775 20.725 74.6167 21.4667 74.6167 22.5375V56.6708C75.5334 56.825 75.9958 56.95 76.8875 57.2833C77.6042 57.5417 78.575 58.1 78.575 58.1V22.5417C78.5673 20.9886 77.9449 19.5017 76.844 18.4063C75.743 17.3108 74.2531 16.6958 72.7 16.6958H32.3667C28.1756 16.7637 24.1795 18.4778 21.2418 21.4677C18.3041 24.4576 16.6607 28.4834 16.6667 32.675C16.6667 37.7583 18.9917 42.0917 22.7667 45.1333C23.025 45.3375 23.2792 45.6167 23.9417 45.6167C24.2018 45.6235 24.4606 45.5774 24.7024 45.481C24.9441 45.3846 25.1636 45.24 25.3476 45.056C25.5317 44.8719 25.6763 44.6524 25.7727 44.4107C25.8691 44.169 25.9152 43.9101 25.9083 43.65C25.9083 42.7833 25.5208 42.4792 24.9875 41.9417Z" fill="#101010"/>
<path d="M71.6958 58.9167H40.0624C39.0445 58.9255 38.0713 59.3357 37.3542 60.0582C36.6372 60.7807 36.2343 61.7571 36.2333 62.775V67.3167C36.2748 68.3502 36.7109 69.3284 37.4519 70.05C38.1929 70.7717 39.1824 71.1817 40.2166 71.1958H42.5666V67.3208H40.1916V62.875H41.4666C45.4749 62.875 48.4124 66.5792 48.4124 70.5583C48.4124 74.0833 45.1958 78.575 39.8333 78.2167C35.0833 77.9125 32.5083 73.675 32.5083 70.5583V32.0125C32.5039 31.174 32.1688 30.3711 31.5759 29.7782C30.983 29.1852 30.1801 28.8502 29.3416 28.8458H26.1749V32.8042H28.5249V70.5833C28.3999 78.2708 33.9874 82.125 39.8333 82.125L71.7208 82.225C73.2477 82.2234 74.7594 81.9209 76.1695 81.3349C77.5795 80.7489 78.8603 79.8909 79.9387 78.8098C81.0171 77.7287 81.8719 76.4458 82.4543 75.0343C83.0368 73.6227 83.3354 72.1103 83.3333 70.5833C83.3365 69.0528 83.038 67.5366 82.4547 66.1215C81.8714 64.7065 81.0147 63.4204 79.9338 62.3367C78.8529 61.2531 77.5689 60.3933 76.1553 59.8064C74.7418 59.2196 73.2263 58.9172 71.6958 58.9167ZM79.3791 70.8417C79.3111 72.8343 78.4719 74.7227 77.0385 76.1087C75.6051 77.4946 73.6896 78.2698 71.6958 78.2708L49.5333 78.1917C51.2958 76.15 52.3666 73.4958 52.3666 70.5833C52.3666 66.0417 49.6624 62.9 49.6624 62.9H71.7208C75.9583 62.9 79.4041 66.3458 79.4041 70.5833L79.3791 70.8417ZM63.1583 33.5167H39.3166V29.5583H63.1583C64.2291 29.5583 65.1249 30.4292 65.1249 31.525C65.1317 31.7863 65.0856 32.0462 64.9895 32.2893C64.8934 32.5323 64.7492 32.7535 64.5655 32.9394C64.3819 33.1254 64.1626 33.2724 63.9208 33.3716C63.6789 33.4708 63.4196 33.5201 63.1583 33.5167Z" fill="#101010"/>
<path d="M63.1583 52.075H39.3167V48.1417H63.1583C64.2292 48.1417 65.125 49.0083 65.125 50.1083C65.1295 50.3678 65.0817 50.6256 64.9845 50.8663C64.8872 51.1069 64.7425 51.3255 64.559 51.509C64.3755 51.6926 64.1569 51.8373 63.9162 51.9345C63.6756 52.0317 63.4178 52.0795 63.1583 52.075ZM67.375 42.7833H39.3125V38.825H67.3417C68.4125 38.825 69.3083 39.6958 69.3083 40.7917C69.3185 41.0517 69.2757 41.3111 69.1823 41.5541C69.089 41.797 68.9472 42.0184 68.7655 42.2048C68.5839 42.3912 68.3661 42.5386 68.1256 42.638C67.8851 42.7375 67.6269 42.7869 67.3666 42.7833" fill="#101010"/>
</svg>
