<svg width="50" height="50" viewBox="0 0 50 50" fill="none" xmlns="http://www.w3.org/2000/svg">
<path fill-rule="evenodd" clip-rule="evenodd" d="M7.32422 7.32227C12.0078 2.63555 18.3711 0 25 0C31.6289 0 37.9922 2.63555 42.6758 7.32227C47.3633 12.009 50 18.3723 50 25C50 31.6277 47.3633 37.991 42.6758 42.6777C37.9922 47.3645 31.6289 50 25 50C18.3711 50 12.0078 47.3645 7.32422 42.6777C2.63672 37.991 0 31.6277 0 25C0.0013416 18.3695 2.63583 12.0109 7.32422 7.32227ZM25.8945 18.4563C23.4648 19.4677 18.6055 21.5609 11.3164 24.7359C10.1328 25.2066 9.51172 25.6672 9.45703 26.1172C9.36085 26.8774 10.3129 27.1772 11.6065 27.5846C11.7839 27.6405 11.9678 27.6984 12.1562 27.7598C13.4336 28.1746 15.1523 28.6602 16.043 28.6793C16.8555 28.6969 17.7578 28.3629 18.7539 27.6777C25.5664 23.0813 29.0781 20.7578 29.3008 20.7078C29.457 20.6727 29.6719 20.6281 29.8164 20.7582C29.9648 20.8879 29.9492 21.134 29.9336 21.2C29.8415 21.6015 26.1158 25.0654 24.1771 26.8679C23.5676 27.4346 23.1347 27.837 23.0469 27.9285C22.8506 28.1324 22.6506 28.3252 22.4584 28.5105C21.2729 29.6533 20.3836 30.5106 22.5078 31.9102C23.5378 32.5886 24.3599 33.1486 25.1816 33.7083C26.0645 34.3096 26.9468 34.9106 28.0859 35.6578C28.3789 35.8498 28.6586 36.0492 28.931 36.2434C29.9664 36.9814 30.8965 37.6444 32.0469 37.5387C32.7148 37.4773 33.4062 36.8492 33.7539 34.9758C34.582 30.5481 36.2109 20.9551 36.5859 17.002C36.6211 16.6559 36.5781 16.2125 36.5469 16.018C36.5117 15.8232 36.4414 15.5459 36.1914 15.3408C35.8906 15.0977 35.4297 15.0465 35.2227 15.0498C34.2812 15.0668 32.8398 15.5684 25.8945 18.4563Z" fill="url(#paint0_linear_1077_2259)"/>
<defs>
<linearGradient id="paint0_linear_1077_2259" x1="2500" y1="0" x2="2500" y2="5000" gradientUnits="userSpaceOnUse">
<stop stop-color="#2AABEE"/>
<stop offset="1" stop-color="#229ED9"/>
</linearGradient>
</defs>
</svg>
