<svg width="711" height="369" viewBox="0 0 711 369" fill="none" xmlns="http://www.w3.org/2000/svg">
<path d="M94.0923 346.157C92.5581 346.155 91.0359 345.887 89.5938 345.364C86.8119 344.346 84.4523 342.426 82.893 339.909C81.3337 337.393 80.6649 334.426 80.9936 331.485L91.1815 237.766H13.2509C10.8473 237.769 8.48803 237.119 6.42659 235.884C4.36515 234.649 2.67939 232.876 1.55037 230.756C0.421356 228.636 -0.108267 226.249 0.0183822 223.851C0.145031 221.453 0.923169 219.135 2.26923 217.145L106.662 61.1674C108.313 58.7264 110.733 56.9065 113.537 55.9964C116.342 55.0864 119.37 55.1385 122.142 56.1444C124.806 57.1326 127.082 58.9518 128.63 61.3325C130.179 63.7132 130.92 66.5289 130.742 69.3628L120.554 163.743H198.485C200.888 163.739 203.248 164.39 205.309 165.625C207.371 166.859 209.056 168.632 210.185 170.752C211.314 172.872 211.844 175.259 211.717 177.657C211.591 180.056 210.813 182.374 209.467 184.363L105.074 340.341C103.86 342.135 102.224 343.603 100.309 344.618C98.3945 345.632 96.2596 346.16 94.0923 346.157Z" fill="#7357FF"/>
<path d="M292.388 246.646H371.846V271H259.178V249.106L338.39 124.384H259.178V100.03H371.846V121.924L292.388 246.646ZM525.256 135.454V271H497.212V255.01C492.784 260.586 486.962 265.014 479.746 268.294C472.694 271.41 465.15 272.968 457.114 272.968C446.454 272.968 436.86 270.754 428.332 266.326C419.968 261.898 413.326 255.338 408.406 246.646C403.65 237.954 401.272 227.458 401.272 215.158V135.454H429.07V210.976C429.07 223.112 432.104 232.46 438.172 239.02C444.24 245.416 452.522 248.614 463.018 248.614C473.514 248.614 481.796 245.416 487.864 239.02C494.096 232.46 497.212 223.112 497.212 210.976V135.454H525.256ZM590.302 155.38C595.058 149.148 601.536 143.9 609.736 139.636C617.936 135.372 627.202 133.24 637.534 133.24C649.342 133.24 660.084 136.192 669.76 142.096C679.6 147.836 687.308 155.954 692.884 166.45C698.46 176.946 701.248 189 701.248 202.612C701.248 216.224 698.46 228.442 692.884 239.266C687.308 249.926 679.6 258.29 669.76 264.358C660.084 270.262 649.342 273.214 637.534 273.214C627.202 273.214 618.018 271.164 609.982 267.064C601.946 262.8 595.386 257.552 590.302 251.32V335.452H562.258V135.454H590.302V155.38ZM672.712 202.612C672.712 193.264 670.744 185.228 666.808 178.504C663.036 171.616 657.952 166.45 651.556 163.006C645.324 159.398 638.6 157.594 631.384 157.594C624.332 157.594 617.608 159.398 611.212 163.006C604.98 166.614 599.896 171.862 595.96 178.75C592.188 185.638 590.302 193.756 590.302 203.104C590.302 212.452 592.188 220.652 595.96 227.704C599.896 234.592 604.98 239.84 611.212 243.448C617.608 247.056 624.332 248.86 631.384 248.86C638.6 248.86 645.324 247.056 651.556 243.448C657.952 239.676 663.036 234.264 666.808 227.212C670.744 220.16 672.712 211.96 672.712 202.612Z" fill="black"/>
</svg>
