<?xml version="1.0" encoding="UTF-8"?>
<!--Generator: Apple Native CoreSVG 326-->
<!DOCTYPE svg
PUBLIC "-//W3C//DTD SVG 1.1//EN"
       "http://www.w3.org/Graphics/SVG/1.1/DTD/svg11.dtd">
<svg version="1.1" xmlns="http://www.w3.org/2000/svg" xmlns:xlink="http://www.w3.org/1999/xlink" viewBox="0 0 20.9266 15.2983">
 <g>
  <rect height="15.2983" opacity="0" width="20.9266" x="0" y="0"/>
  <path d="M0.199402 5.76904C0.489929 6.05957 0.880066 6.02637 1.16229 5.75244L1.95917 4.96387L3.18768 3.66064L3.18768 12.7251C3.18768 14.4434 4.06757 15.2983 5.79413 15.2983L12.551 15.2983C13.0241 15.2983 13.298 15.0576 13.2897 14.6343C13.2814 14.2026 13.0241 13.9619 12.551 13.9619L5.81903 13.9619C4.98895 13.9619 4.52411 13.522 4.52411 12.6587L4.52411 3.64404L5.76093 4.96387L6.5578 5.75244C6.84003 6.02637 7.23846 6.05957 7.52069 5.76904C7.80292 5.49512 7.78632 5.08838 7.50409 4.80615L4.70673 2.01709C4.16718 1.48584 3.56122 1.48584 3.02167 2.01709L0.224304 4.80615C-0.0662231 5.08838-0.0745239 5.49512 0.199402 5.76904ZM7.26337 0.680664C7.27167 1.104 7.52899 1.35303 8.00214 1.35303L14.7424 1.35303C15.5724 1.35303 16.029 1.79297 16.029 2.65625L16.029 11.6709L14.7922 10.3428L13.9953 9.5625C13.7131 9.28857 13.3229 9.25537 13.0324 9.5376C12.7502 9.81982 12.7668 10.2266 13.049 10.5088L15.8464 13.2896C16.3942 13.8291 16.9919 13.8291 17.5397 13.2896L20.3288 10.5088C20.6193 10.2266 20.6276 9.81982 20.3537 9.5376C20.0715 9.25537 19.673 9.28027 19.3908 9.5625L18.5939 10.3428L17.3654 11.6543L17.3654 2.58984C17.3654 0.871582 16.4938 0.0166016 14.759 0.0166016L8.00214 0.0166016C7.52899 0.0166016 7.25507 0.257324 7.26337 0.680664Z" fill="white" fill-opacity="0.85"/>
 </g>
</svg>
