<?xml version="1.0" encoding="UTF-8"?>
<!--Generator: Apple Native CoreSVG 326-->
<!DOCTYPE svg
PUBLIC "-//W3C//DTD SVG 1.1//EN"
       "http://www.w3.org/Graphics/SVG/1.1/DTD/svg11.dtd">
<svg version="1.1" xmlns="http://www.w3.org/2000/svg" xmlns:xlink="http://www.w3.org/1999/xlink" viewBox="0 0 12.6338 12.2769">
 <g>
  <rect height="12.2769" opacity="0" width="12.6338" x="0" y="0"/>
  <path d="M12.2603 9.18066L12.252 0.830078C12.252 0.356934 11.9448 0.0249023 11.4468 0.0249023L3.09619 0.0249023C2.63135 0.0249023 2.31592 0.381836 2.31592 0.780273C2.31592 1.17871 2.67285 1.51904 3.06299 1.51904L5.95166 1.51904L10.0024 1.38623L8.4585 2.73926L0.232422 10.9819C0.0830078 11.1313 0 11.3223 0 11.5049C0 11.9033 0.356934 12.2769 0.771973 12.2769C0.962891 12.2769 1.14551 12.2104 1.29492 12.0527L9.5376 3.81836L10.9072 2.26611L10.7578 6.14258L10.7578 9.21387C10.7578 9.604 11.0981 9.96924 11.5049 9.96924C11.9033 9.96924 12.2603 9.62891 12.2603 9.18066Z" fill="white" fill-opacity="0.85"/>
 </g>
</svg>
