<?xml version="1.0" encoding="UTF-8"?>
<!--Generator: Apple Native CoreSVG 326-->
<!DOCTYPE svg
PUBLIC "-//W3C//DTD SVG 1.1//EN"
       "http://www.w3.org/Graphics/SVG/1.1/DTD/svg11.dtd">
<svg version="1.1" xmlns="http://www.w3.org/2000/svg" xmlns:xlink="http://www.w3.org/1999/xlink" viewBox="0 0 15.7881 12.5923">
 <g>
  <rect height="12.5923" opacity="0" width="15.7881" x="0" y="0"/>
  <path d="M0 6.29199C0 6.49951 0.0913086 6.69043 0.257324 6.84814L5.76904 12.3516C5.93506 12.5093 6.10938 12.584 6.30859 12.584C6.71533 12.584 7.03906 12.2852 7.03906 11.8701C7.03906 11.6709 6.96436 11.4717 6.83154 11.3472L4.97217 9.45459L1.68506 6.45801L1.51074 6.86475L4.18359 7.03076L14.6841 7.03076C15.1157 7.03076 15.4146 6.72363 15.4146 6.29199C15.4146 5.86035 15.1157 5.55322 14.6841 5.55322L4.18359 5.55322L1.51074 5.71924L1.68506 6.13428L4.97217 3.12939L6.83154 1.23682C6.96436 1.104 7.03906 0.913086 7.03906 0.713867C7.03906 0.298828 6.71533 0 6.30859 0C6.10938 0 5.93506 0.0664062 5.75244 0.249023L0.257324 5.73584C0.0913086 5.89355 0 6.08447 0 6.29199Z" fill="black" fill-opacity="0.85"/>
 </g>
</svg>
