<?xml version="1.0" encoding="UTF-8"?>
<!--Generator: Apple Native CoreSVG 326-->
<!DOCTYPE svg
PUBLIC "-//W3C//DTD SVG 1.1//EN"
       "http://www.w3.org/Graphics/SVG/1.1/DTD/svg11.dtd">
<svg version="1.1" xmlns="http://www.w3.org/2000/svg" xmlns:xlink="http://www.w3.org/1999/xlink" viewBox="0 0 19.814 18.5363">
 <g>
  <rect height="18.5363" opacity="0" width="19.814" x="0" y="0"/>
  <path d="M0 7.40464C0 8.19322 0.481445 8.67466 1.27002 8.67466L18.1621 8.67466C18.9507 8.67466 19.4404 8.19322 19.4404 7.40464L19.4404 6.9979C19.4404 6.21763 18.9507 5.71958 18.1621 5.71958L1.27002 5.71958C0.481445 5.71958 0 6.21763 0 6.9979ZM5.2793 17.7889L14.1611 17.7889C16.0786 17.7889 16.6763 16.6683 16.917 15.4647L18.0708 9.81187L1.37793 9.81187L2.52344 15.4647C2.76416 16.6683 3.36182 17.7889 5.2793 17.7889ZM5.81885 16.3612C5.50342 16.411 5.271 16.245 5.22119 15.9627L4.50732 11.7875C4.45752 11.5052 4.64014 11.2811 4.95557 11.223C5.271 11.1815 5.51172 11.3392 5.56152 11.6214L6.26709 15.7967C6.30859 16.079 6.14258 16.3031 5.81885 16.3612ZM8.4502 16.3529C8.13477 16.3695 7.90234 16.1786 7.88574 15.888L7.61182 11.7626C7.59521 11.472 7.80273 11.2645 8.10986 11.2396C8.43359 11.2147 8.64941 11.4139 8.67432 11.7044L8.94824 15.8299C8.96484 16.1205 8.75732 16.3363 8.4502 16.3529ZM11.0068 16.3529C10.6914 16.3363 10.4839 16.1205 10.5005 15.8299L10.7744 11.7044C10.7993 11.4139 11.0151 11.2147 11.3389 11.2396C11.646 11.2645 11.8535 11.472 11.8369 11.7626L11.563 15.888C11.5464 16.1786 11.314 16.3695 11.0068 16.3529ZM13.6216 16.3612C13.2979 16.3031 13.1318 16.079 13.1733 15.7967L13.8789 11.6214C13.9287 11.3392 14.1694 11.1815 14.4849 11.223C14.8003 11.2811 14.9829 11.5218 14.9331 11.8041L14.2192 15.9627C14.1694 16.245 13.9287 16.411 13.6216 16.3612ZM2.67285 6.07652L4.33301 6.07652L7.25488 1.00474C7.479 0.606302 7.29639 0.257669 6.98926 0.0916535C6.69043-0.0660614 6.29199-0.041159 6.06787 0.332376ZM15.1074 6.07652L16.7676 6.07652L13.3726 0.332376C13.1567-0.0328582 12.7583-0.0577606 12.4512 0.0916535C12.1523 0.257669 11.9614 0.606302 12.1855 1.00474Z" fill="white" fill-opacity="0.85"/>
 </g>
</svg>
