<?xml version="1.0" encoding="UTF-8"?>
<!--Generator: Apple Native CoreSVG 326-->
<!DOCTYPE svg
PUBLIC "-//W3C//DTD SVG 1.1//EN"
       "http://www.w3.org/Graphics/SVG/1.1/DTD/svg11.dtd">
<svg version="1.1" xmlns="http://www.w3.org/2000/svg" xmlns:xlink="http://www.w3.org/1999/xlink" viewBox="0 0 17.3071 16.9419">
 <g>
  <rect height="16.9419" opacity="0" width="17.3071" x="0" y="0"/>
  <path d="M16.9336 8.4751C16.9336 13.1484 13.1401 16.9419 8.4668 16.9419C3.80176 16.9419 0 13.1484 0 8.4751C0 3.81006 3.80176 0.00830078 8.4668 0.00830078C13.1401 0.00830078 16.9336 3.81006 16.9336 8.4751ZM9.5542 2.83887L4.86426 8.73242C4.77295 8.83203 4.72314 8.95654 4.72314 9.06445C4.72314 9.28027 4.88916 9.43799 5.11328 9.43799L8.01855 9.43799L6.46631 13.5967C6.25879 14.1445 6.84814 14.4434 7.20508 14.0034L11.895 8.11816C11.9863 8.01025 12.0361 7.88574 12.0361 7.77783C12.0361 7.56201 11.8701 7.4043 11.646 7.4043L8.74072 7.4043L10.293 3.24561C10.5005 2.69775 9.91113 2.39893 9.5542 2.83887Z" fill="black" fill-opacity="0.85"/>
 </g>
</svg>
