<?xml version="1.0" encoding="UTF-8"?>
<!--Generator: Apple Native CoreSVG 326-->
<!DOCTYPE svg
PUBLIC "-//W3C//DTD SVG 1.1//EN"
       "http://www.w3.org/Graphics/SVG/1.1/DTD/svg11.dtd">
<svg version="1.1" xmlns="http://www.w3.org/2000/svg" xmlns:xlink="http://www.w3.org/1999/xlink" viewBox="0 0 20.9097 5.90186">
 <g>
  <rect height="5.90186" opacity="0" width="20.9097" x="0" y="0"/>
  <path d="M0 3.63574L8.62451 3.63574L8.62451 2.25781L0 2.25781ZM8.27588 5.90186L15.3896 5.90186C16.1201 5.90186 16.4106 5.60303 16.4106 4.88086L16.4106 1.0127C16.4106 0.290527 16.1201 0 15.3896 0L8.27588 0C7.54541 0 7.25488 0.290527 7.25488 1.0127L7.25488 4.88086C7.25488 5.60303 7.54541 5.90186 8.27588 5.90186Z" fill="white" fill-opacity="0.85"/>
  <path d="M17.3735 4.71484L19.5234 4.71484C20.2456 4.71484 20.5361 4.41602 20.5361 3.68555L20.5361 2.20801C20.5361 1.48584 20.2456 1.18701 19.5234 1.18701L17.3735 1.18701Z" fill="white" fill-opacity="0.85"/>
 </g>
</svg>
