<?xml version="1.0" encoding="UTF-8"?>
<!--Generator: Apple Native CoreSVG 326-->
<!DOCTYPE svg
PUBLIC "-//W3C//DTD SVG 1.1//EN"
       "http://www.w3.org/Graphics/SVG/1.1/DTD/svg11.dtd">
<svg version="1.1" xmlns="http://www.w3.org/2000/svg" xmlns:xlink="http://www.w3.org/1999/xlink" viewBox="0 0 20.9821 15.5595">
 <g>
  <rect height="15.5595" opacity="0" width="20.9821" x="0" y="0"/>
  <path d="M16.5081 15.5326L18.8574 15.5326C20.0134 15.5326 20.6085 14.9692 20.6085 13.8436L20.6085 1.69212C20.6085 0.566529 20.0134 0 18.8574 0L16.5081 0C15.3604 0 14.7684 0.566529 14.7684 1.69212L14.7684 13.8436C14.7684 14.9692 15.3604 15.5326 16.5081 15.5326ZM16.655 14.5597C16.0345 14.5597 15.7846 14.3104 15.7846 13.6852L15.7846 1.8505C15.7846 1.22794 16.0345 0.970364 16.655 0.970364L18.7162 0.970364C19.3425 0.970364 19.5923 1.22794 19.5923 1.8505L19.5923 13.6852C19.5923 14.3104 19.3425 14.5597 18.7162 14.5597Z" fill="white" fill-opacity="0.85"/>
  <path d="M9.12547 15.5326L11.4773 15.5326C12.6307 15.5326 13.2202 14.9692 13.2202 13.8436L13.2202 4.1005C13.2202 2.97749 12.6307 2.40839 11.4773 2.40839L9.12547 2.40839C7.97207 2.40839 7.38263 2.97749 7.38263 4.1005L7.38263 13.8436C7.38263 14.9692 7.97207 15.5326 9.12547 15.5326ZM9.27239 14.5597C8.6461 14.5597 8.39882 14.3104 8.39882 13.6852L8.39882 4.26146C8.39882 3.63633 8.6461 3.38133 9.27239 3.38133L11.3336 3.38133C11.9624 3.38133 12.204 3.63633 12.204 4.26146L12.204 13.6852C12.204 14.3104 11.9624 14.5597 11.3336 14.5597Z" fill="white" fill-opacity="0.85"/>
  <path d="M1.74283 15.5326L4.08897 15.5326C5.24236 15.5326 5.83753 14.9692 5.83753 13.8436L5.83753 6.48773C5.83753 5.36471 5.24236 4.79561 4.08897 4.79561L1.74283 4.79561C0.589439 4.79561 0 5.36471 0 6.48773L0 13.8436C0 14.9692 0.589439 15.5326 1.74283 15.5326ZM1.8866 14.5597C1.26346 14.5597 1.01618 14.3104 1.01618 13.6852L1.01618 6.64611C1.01618 6.01782 1.26346 5.76855 1.8866 5.76855L3.9452 5.76855C4.57406 5.76855 4.82134 6.01782 4.82134 6.64611L4.82134 13.6852C4.82134 14.3104 4.57406 14.5597 3.9452 14.5597Z" fill="white" fill-opacity="0.85"/>
 </g>
</svg>
