<?xml version="1.0" encoding="UTF-8"?>
<!--Generator: Apple Native CoreSVG 326-->
<!DOCTYPE svg
PUBLIC "-//W3C//DTD SVG 1.1//EN"
       "http://www.w3.org/Graphics/SVG/1.1/DTD/svg11.dtd">
<svg version="1.1" xmlns="http://www.w3.org/2000/svg" xmlns:xlink="http://www.w3.org/1999/xlink" viewBox="0 0 9.86963 14.4185">
 <g>
  <rect height="14.4185" opacity="0" width="9.86963" x="0" y="0"/>
  <path d="M9.86963 7.20508C9.86963 6.99756 9.78662 6.80664 9.62891 6.65723L3.05469 0.21582C2.90527 0.074707 2.72266 0 2.50684 0C2.0835 0 1.75146 0.32373 1.75146 0.755371C1.75146 0.962891 1.83447 1.15381 1.96729 1.29492L8.01025 7.20508L1.96729 13.1152C1.83447 13.2563 1.75146 13.439 1.75146 13.6548C1.75146 14.0864 2.0835 14.4102 2.50684 14.4102C2.72266 14.4102 2.90527 14.3354 3.05469 14.186L9.62891 7.75293C9.78662 7.59521 9.86963 7.4126 9.86963 7.20508Z" fill="white" fill-opacity="0.85"/>
 </g>
</svg>
