<?xml version="1.0" encoding="UTF-8"?>
<!--Generator: Apple Native CoreSVG 326-->
<!DOCTYPE svg
PUBLIC "-//W3C//DTD SVG 1.1//EN"
       "http://www.w3.org/Graphics/SVG/1.1/DTD/svg11.dtd">
<svg version="1.1" xmlns="http://www.w3.org/2000/svg" xmlns:xlink="http://www.w3.org/1999/xlink" viewBox="0 0 14.792 8.84033">
 <g>
  <rect height="8.84033" opacity="0" width="14.792" x="0" y="0"/>
  <path d="M7.21338 8.84033C7.4209 8.84033 7.62842 8.75732 7.76953 8.59961L14.1943 2.01709C14.3354 1.87598 14.4185 1.69336 14.4185 1.48584C14.4185 1.0542 14.0947 0.722168 13.6631 0.722168C13.4556 0.722168 13.2646 0.805176 13.1235 0.937988L6.76514 7.4375L7.65332 7.4375L1.29492 0.937988C1.16211 0.805176 0.971191 0.722168 0.755371 0.722168C0.32373 0.722168 0 1.0542 0 1.48584C0 1.69336 0.0830078 1.87598 0.224121 2.02539L6.64893 8.59961C6.80664 8.75732 6.99756 8.84033 7.21338 8.84033Z" fill="black" fill-opacity="0.85"/>
 </g>
</svg>
