<?xml version="1.0" encoding="UTF-8"?>
<!--Generator: Apple Native CoreSVG 326-->
<!DOCTYPE svg
PUBLIC "-//W3C//DTD SVG 1.1//EN"
       "http://www.w3.org/Graphics/SVG/1.1/DTD/svg11.dtd">
<svg version="1.1" xmlns="http://www.w3.org/2000/svg" xmlns:xlink="http://www.w3.org/1999/xlink" viewBox="0 0 12.8579 2.58154">
 <g>
  <rect height="2.58154" opacity="0" width="12.8579" x="0" y="0"/>
  <path d="M11.1978 2.57324C11.9116 2.57324 12.4844 2.00049 12.4844 1.28662C12.4844 0.572754 11.9116 0 11.1978 0C10.4922 0 9.91113 0.572754 9.91113 1.28662C9.91113 2.00049 10.4922 2.57324 11.1978 2.57324Z" fill="black" fill-opacity="0.85"/>
  <path d="M6.24219 2.57324C6.95605 2.57324 7.52881 2.00049 7.52881 1.28662C7.52881 0.572754 6.95605 0 6.24219 0C5.52832 0 4.95557 0.572754 4.95557 1.28662C4.95557 2.00049 5.52832 2.57324 6.24219 2.57324Z" fill="black" fill-opacity="0.85"/>
  <path d="M1.28662 2.57324C2.00049 2.57324 2.57324 2.00049 2.57324 1.28662C2.57324 0.572754 2.00049 0 1.28662 0C0.572754 0 0 0.572754 0 1.28662C0 2.00049 0.572754 2.57324 1.28662 2.57324Z" fill="black" fill-opacity="0.85"/>
 </g>
</svg>
