<?xml version="1.0" encoding="UTF-8"?>
<!--Generator: Apple Native CoreSVG 326-->
<!DOCTYPE svg
PUBLIC "-//W3C//DTD SVG 1.1//EN"
       "http://www.w3.org/Graphics/SVG/1.1/DTD/svg11.dtd">
<svg version="1.1" xmlns="http://www.w3.org/2000/svg" xmlns:xlink="http://www.w3.org/1999/xlink" viewBox="0 0 18.7266 18.1059">
 <g>
  <rect height="18.1059" opacity="0" width="18.7266" x="0" y="0"/>
  <path d="M9.17236 16.9844C9.37988 16.9844 9.5791 16.9761 9.77832 16.9595L10.2349 17.8144C10.3428 18.0303 10.5337 18.1133 10.7661 18.0884C11.0068 18.0469 11.1479 17.8891 11.1729 17.6567L11.314 16.6938C11.7124 16.5859 12.0859 16.4448 12.4512 16.2788L13.165 16.9263C13.3394 17.0923 13.5552 17.1006 13.7627 16.9927C13.9702 16.8765 14.0532 16.6772 14.0034 16.4448L13.7959 15.4985C14.1279 15.2661 14.4351 15.0005 14.7256 14.7265L15.6138 15.0918C15.8379 15.1748 16.0454 15.125 16.2031 14.9424C16.3608 14.7598 16.3774 14.5522 16.2446 14.3447L15.73 13.5312C15.9541 13.1909 16.1533 12.8423 16.3359 12.4853L17.2905 12.5185C17.5312 12.5268 17.7139 12.4106 17.7969 12.1782C17.8799 11.9624 17.8218 11.7549 17.6309 11.6138L16.8589 11.0244C16.9668 10.6343 17.0332 10.2358 17.0747 9.82079L17.9878 9.53026C18.2202 9.45555 18.353 9.28954 18.353 9.04881C18.353 8.80809 18.2202 8.63378 17.9878 8.56737L17.0747 8.27684C17.0332 7.8618 16.9668 7.46337 16.8589 7.07323L17.6226 6.48387C17.8218 6.34276 17.8716 6.13524 17.7969 5.91112C17.7139 5.6787 17.5312 5.57079 17.2905 5.57909L16.3359 5.60399C16.1533 5.24706 15.9541 4.89012 15.73 4.55809L16.2363 3.75292C16.3691 3.5454 16.3525 3.32958 16.2114 3.14696C16.0454 2.96434 15.8379 2.92284 15.6221 3.00585L14.7256 3.37108C14.4351 3.08055 14.1196 2.82323 13.7959 2.59081L14.0034 1.65282C14.0532 1.4121 13.9702 1.22118 13.771 1.10497C13.5552 0.980455 13.3394 1.01366 13.165 1.17137L12.4429 1.81053C12.0859 1.64452 11.7041 1.51171 11.3057 1.39549L11.1729 0.440904C11.1479 0.208482 10.9985 0.0590684 10.7744 0.00926371C10.5337-0.0322402 10.3428 0.0673692 10.2349 0.274889L9.77832 1.12987C9.5791 1.12157 9.37988 1.11327 9.17236 1.11327C8.97314 1.11327 8.77393 1.12157 8.56641 1.12987L8.11816 0.283189C8.00195 0.0673692 7.81104-0.0239394 7.58691 0.00926371C7.34619 0.0507676 7.20508 0.208482 7.17188 0.440904L7.03076 1.39549C6.64062 1.51171 6.25879 1.65282 5.89355 1.81883L5.18799 1.17137C5.01367 1.00536 4.79785 0.988756 4.58203 1.10497C4.37451 1.22118 4.2998 1.4204 4.34961 1.65282L4.54883 2.59911C4.2168 2.83153 3.90967 3.08885 3.61914 3.37108L2.73096 3.00585C2.51514 2.91454 2.29932 2.97264 2.1416 3.15526C1.98389 3.32958 1.97559 3.5454 2.1084 3.75292L2.62305 4.56639C2.39062 4.89842 2.19141 5.25536 2.01709 5.61229L1.0625 5.57909C0.813477 5.56249 0.63916 5.687 0.556152 5.91112C0.464844 6.13524 0.53125 6.34276 0.722168 6.48387L1.48584 7.07323C1.38623 7.46337 1.31152 7.8618 1.27832 8.27684L0.356934 8.56737C0.124512 8.63378 0 8.80809 0 9.04881C0 9.28954 0.124512 9.45555 0.356934 9.53026L1.27832 9.82079C1.31152 10.2358 1.38623 10.6343 1.48584 11.0244L0.722168 11.6138C0.53125 11.7549 0.481445 11.9624 0.547852 12.1865C0.63916 12.4189 0.813477 12.5268 1.0542 12.5185L2.01709 12.4853C2.19141 12.8506 2.39062 13.1992 2.62305 13.5395L2.1084 14.3447C1.97559 14.5522 2.00049 14.7681 2.1416 14.9424C2.30762 15.1333 2.51514 15.1748 2.73096 15.0918L3.61914 14.7182C3.90967 15.0088 4.2251 15.2661 4.54883 15.5068L4.34961 16.4448C4.2998 16.6772 4.38281 16.8765 4.58203 16.9927C4.79785 17.1172 5.01367 17.0923 5.17969 16.9263L5.90186 16.2788C6.26709 16.4531 6.64893 16.5859 7.03906 16.6938L7.17188 17.6484C7.20508 17.8891 7.35449 18.0386 7.57861 18.0884C7.81934 18.1299 8.00195 18.0303 8.11816 17.8144L8.56641 16.9595C8.77393 16.9761 8.97314 16.9844 9.17236 16.9844ZM9.17236 15.6064C5.55322 15.6064 2.61475 12.668 2.61475 9.04881C2.61475 5.42137 5.55322 2.4912 9.17236 2.4912C12.7998 2.4912 15.73 5.42137 15.73 9.04881C15.73 12.668 12.7998 15.6064 9.17236 15.6064ZM7.72803 7.77879L8.70752 7.15624L5.93506 2.39989L4.91406 2.97264ZM11.0234 9.61327L16.5435 9.61327L16.5435 8.46776L11.0234 8.46776ZM8.72412 10.9663L7.75293 10.3354L4.83105 15.1001L5.84375 15.6977ZM9.18066 11.2236C10.3843 11.2236 11.3555 10.2524 11.3555 9.04881C11.3555 7.8452 10.3843 6.87401 9.18066 6.87401C7.97705 6.87401 7.00586 7.8452 7.00586 9.04881C7.00586 10.2524 7.97705 11.2236 9.18066 11.2236ZM9.18066 9.9785C8.66602 9.9785 8.25098 9.56346 8.25098 9.04881C8.25098 8.53417 8.66602 8.11913 9.18066 8.11913C9.69531 8.11913 10.1104 8.53417 10.1104 9.04881C10.1104 9.56346 9.69531 9.9785 9.18066 9.9785Z" fill="black" fill-opacity="0.85"/>
 </g>
</svg>
