<svg width="287" height="159" viewBox="0 0 287 159" fill="none" xmlns="http://www.w3.org/2000/svg">
<g clip-path="url(#clip0_1096_18)">
<path d="M0 149.234C0 154.677 4.26544 159.004 9.67081 159.004H272.728C278.133 159.004 282.398 154.677 282.398 149.234C282.398 143.759 278.133 139.462 272.728 139.462H250.686V20.8237C250.686 7.21298 243.501 0.237305 229.992 0.237305H52.4068C39.3525 0.237305 31.7126 7.21298 31.7126 20.8237V139.462H9.67081C4.26544 139.462 0 143.759 0 149.234ZM44.1904 139.462V23.8907C44.1904 16.4091 47.9155 12.7151 55.3972 12.7151H227.001C234.483 12.7151 238.239 16.4091 238.239 23.8907V139.462H44.1904Z" fill="black" fill-opacity="0.85"/>
</g>
<defs>
<clipPath id="clip0_1096_18">
<rect width="286.934" height="159" fill="white"/>
</clipPath>
</defs>
</svg>
