<?xml version="1.0" encoding="UTF-8"?>
<!--Generator: Apple Native CoreSVG 326-->
<!DOCTYPE svg
PUBLIC "-//W3C//DTD SVG 1.1//EN"
       "http://www.w3.org/Graphics/SVG/1.1/DTD/svg11.dtd">
<svg version="1.1" xmlns="http://www.w3.org/2000/svg" xmlns:xlink="http://www.w3.org/1999/xlink" viewBox="0 0 17.4565 16.6929">
 <g>
  <rect height="16.6929" opacity="0" width="17.4565" x="0" y="0"/>
  <path d="M1.86768 16.2695L9.46289 16.2695C10.6831 16.2695 11.3306 15.6055 11.3306 14.2939L11.3306 8.57471C11.3306 7.27148 10.6831 6.60742 9.46289 6.60742L1.86768 6.60742C0.647461 6.60742 0 7.27148 0 8.57471L0 14.2939C0 15.6055 0.647461 16.2695 1.86768 16.2695ZM1.90918 15.0161C1.55225 15.0161 1.34473 14.792 1.34473 14.3853L1.34473 8.4834C1.34473 8.07666 1.55225 7.86084 1.90918 7.86084L9.42139 7.86084C9.78662 7.86084 9.98584 8.07666 9.98584 8.4834L9.98584 14.3853C9.98584 14.792 9.78662 15.0161 9.42139 15.0161ZM8.65771 7.25488L9.96924 7.25488L9.96924 4.45752C9.96924 2.35742 11.314 1.25342 12.8662 1.25342C14.4185 1.25342 15.7632 2.35742 15.7632 4.45752L15.7632 6.30029C15.7632 6.79004 16.0537 7.03906 16.4272 7.03906C16.7842 7.03906 17.083 6.81494 17.083 6.30029L17.083 4.63184C17.083 1.51074 15.0327 0 12.8662 0C10.6914 0 8.65771 1.51074 8.65771 4.63184Z" fill="white" fill-opacity="0.85"/>
 </g>
</svg>
