<?xml version="1.0" encoding="UTF-8"?>
<!--Generator: Apple Native CoreSVG 326-->
<!DOCTYPE svg
PUBLIC "-//W3C//DTD SVG 1.1//EN"
       "http://www.w3.org/Graphics/SVG/1.1/DTD/svg11.dtd">
<svg version="1.1" xmlns="http://www.w3.org/2000/svg" xmlns:xlink="http://www.w3.org/1999/xlink" viewBox="0 0 16.5933 16.3774">
 <g>
  <rect height="16.3774" opacity="0" width="16.5933" x="0" y="0"/>
  <path d="M0 6.62402C0 10.2764 2.97168 13.248 6.62402 13.248C8.06836 13.248 9.38818 12.7832 10.4756 12.0029L14.5596 16.0952C14.7505 16.2861 14.9995 16.3774 15.2651 16.3774C15.8296 16.3774 16.2197 15.9541 16.2197 15.3979C16.2197 15.1323 16.1201 14.8916 15.9458 14.7173L11.8867 10.6333C12.7417 9.521 13.248 8.13477 13.248 6.62402C13.248 2.97168 10.2764 0 6.62402 0C2.97168 0 0 2.97168 0 6.62402ZM1.41943 6.62402C1.41943 3.75195 3.75195 1.41943 6.62402 1.41943C9.49609 1.41943 11.8286 3.75195 11.8286 6.62402C11.8286 9.49609 9.49609 11.8286 6.62402 11.8286C3.75195 11.8286 1.41943 9.49609 1.41943 6.62402Z" fill="white" fill-opacity="0.85"/>
 </g>
</svg>
