<?xml version="1.0" encoding="UTF-8"?>
<!--Generator: Apple Native CoreSVG 326-->
<!DOCTYPE svg
PUBLIC "-//W3C//DTD SVG 1.1//EN"
       "http://www.w3.org/Graphics/SVG/1.1/DTD/svg11.dtd">
<svg version="1.1" xmlns="http://www.w3.org/2000/svg" xmlns:xlink="http://www.w3.org/1999/xlink" viewBox="0 0 16.7713 16.5478">
 <g>
  <rect height="16.5478" opacity="0" width="16.7713" x="0" y="0"/>
  <path d="M12.9044 11.2647C8.22259 11.2647 5.33973 8.45227 5.33973 3.91731C5.33973 2.66073 5.56559 1.57931 5.89331 0.896735C5.98951 0.694611 6.01442 0.593839 6.01442 0.466422C6.01442 0.241387 5.81628 0 5.54227 0C5.47586 0 5.33873 0.0223291 5.1552 0.0956252C2.1431 1.29442 0 4.44158 0 7.9177C0 12.657 3.84733 16.4986 8.58085 16.4986C11.8932 16.4986 14.8972 14.6143 16.3073 11.6076C16.3895 11.4406 16.3978 11.2966 16.3978 11.2182C16.3978 10.9447 16.1767 10.7586 15.9554 10.7586C15.8509 10.7586 15.7642 10.7669 15.6113 10.8262C15.0007 11.0821 13.9031 11.2647 12.9044 11.2647ZM1.00473 7.88018C1.00473 5.13653 2.50385 2.57773 4.82616 1.23898C4.53995 2.0547 4.37825 3.01003 4.37825 3.99492C4.37825 9.12372 7.52823 12.209 12.7778 12.209C13.6714 12.209 14.4785 12.0966 15.1752 11.8558C13.8723 14.1169 11.3781 15.5053 8.61837 15.5053C4.31574 15.5053 1.00473 12.2 1.00473 7.88018Z" fill="black" fill-opacity="0.85"/>
 </g>
</svg>
