<?xml version="1.0" encoding="UTF-8"?>
<!--Generator: Apple Native CoreSVG 326-->
<!DOCTYPE svg
PUBLIC "-//W3C//DTD SVG 1.1//EN"
       "http://www.w3.org/Graphics/SVG/1.1/DTD/svg11.dtd">
<svg version="1.1" xmlns="http://www.w3.org/2000/svg" xmlns:xlink="http://www.w3.org/1999/xlink" viewBox="0 0 18.822 18.4569">
 <g>
  <rect height="18.4569" opacity="0" width="18.822" x="0" y="0"/>
  <path d="M3.02596 5.31015C2.30203 6.43991 1.88635 7.78383 1.88635 9.22432C1.88635 9.32775 1.8885 9.43067 1.90184 9.53069C2.73898 10.2514 3.65395 10.8417 4.61947 11.3C4.63555 9.99604 4.83899 8.71781 5.21261 7.49799L6.02035 8.30617C5.7303 9.41117 5.59048 10.5629 5.61727 11.7345C6.63545 12.1347 7.69708 12.3957 8.77274 12.5208C8.61328 11.9351 8.50057 11.3352 8.43718 10.7243L9.66481 11.9526C9.71223 12.1722 9.76835 12.3893 9.83896 12.602L10.3127 12.6008L11.2782 13.5668C10.9093 13.6025 10.5393 13.6142 10.1696 13.6021C10.5042 14.5139 10.9495 15.3845 11.4987 16.1981C12.082 16.0122 12.6316 15.7518 13.135 15.4247L13.9553 16.2454C12.6042 17.1581 10.9761 17.6911 9.22424 17.6911C4.5509 17.6911 0.757446 13.8977 0.757446 9.22432C0.757446 7.47086 1.29149 5.84126 2.20577 4.48952ZM6.34083 15.9718C7.22557 16.3523 8.20052 16.5622 9.22424 16.5622C9.64942 16.5622 10.0662 16.526 10.4691 16.4487C9.8845 15.5388 9.41985 14.5675 9.08155 13.5517C7.91791 13.4607 6.76664 13.2163 5.6579 12.8283C5.73251 13.907 5.96136 14.9595 6.34083 15.9718ZM5.0511 15.2552C4.80287 14.3279 4.66445 13.3819 4.64012 12.4265C3.75456 12.0422 2.9048 11.56 2.10748 10.9824C2.53322 12.7449 3.60219 14.2549 5.0511 15.2552ZM17.691 9.22432C17.691 10.982 17.1544 12.6153 16.2356 13.9686L14.2433 11.9752C14.9536 11.755 15.6466 11.4608 16.3128 11.0921C16.4784 10.498 16.5621 9.87091 16.5621 9.22432C16.5621 8.51002 16.4599 7.81946 16.2644 7.16851C15.101 8.00675 13.7814 8.58835 12.3812 8.88465C12.7375 9.92372 13.2542 10.8688 13.9262 11.658L11.4067 9.13709L11.38 9.05403L11.3301 9.06043L10.394 8.12384C10.6333 8.12414 10.8699 8.10785 11.1036 8.0779C10.8967 7.19794 10.7871 6.27629 10.7765 5.33956C10.77 4.34332 10.8963 3.37261 11.1655 2.44005C10.2806 3.88994 9.70625 5.50168 9.46542 7.19475L8.60246 6.33132C8.90307 4.79249 9.46784 3.31846 10.2735 1.97005C10.1623 1.945 10.0475 1.93124 9.93136 1.92217C8.89655 2.83885 8.02828 3.90609 7.34929 5.07746L6.62261 4.35038C7.14614 3.47793 7.77153 2.66321 8.49027 1.92353C7.32482 2.03866 6.23955 2.42747 5.30317 3.03023L4.4836 2.21021C5.83633 1.29316 7.46817 0.757527 9.22424 0.757527C13.8976 0.757527 17.691 4.55098 17.691 9.22432ZM15.0733 12.7506C15.2047 12.8533 15.3417 12.9489 15.4831 13.0388C15.604 12.8573 15.7097 12.6656 15.7997 12.4648C15.5611 12.5718 15.3193 12.669 15.0733 12.7506ZM11.7809 5.33126C11.7917 6.21931 11.8981 7.09041 12.0994 7.9172C13.4784 7.63332 14.7722 7.04396 15.895 6.18169C15.1565 4.54926 13.833 3.23973 12.1918 2.51735C11.9086 3.41794 11.774 4.37177 11.7809 5.33126Z" fill="black" fill-opacity="0.85"/>
  <path d="M16.3878 17.301C16.6368 17.55 17.0519 17.5417 17.2926 17.2927C17.5416 17.0437 17.5416 16.6369 17.2926 16.3879L2.06897 1.16427C1.81995 0.915242 1.40491 0.906941 1.15588 1.16427C0.90686 1.40499 0.90686 1.82003 1.15588 2.06905Z" fill="black" fill-opacity="0.85"/>
 </g>
</svg>
