<?xml version="1.0" encoding="UTF-8"?>
<!--Generator: Apple Native CoreSVG 326-->
<!DOCTYPE svg
PUBLIC "-//W3C//DTD SVG 1.1//EN"
       "http://www.w3.org/Graphics/SVG/1.1/DTD/svg11.dtd">
<svg version="1.1" xmlns="http://www.w3.org/2000/svg" xmlns:xlink="http://www.w3.org/1999/xlink" viewBox="0 0 18.6187 18.187">
 <g>
  <rect height="18.187" opacity="0" width="18.6187" x="0" y="0"/>
  <path d="M10.3926 18.187C10.9902 18.187 11.4136 17.6724 11.7207 16.8755L17.1577 2.67285C17.3071 2.29102 17.3901 1.95068 17.3901 1.66846C17.3901 1.12891 17.0581 0.796875 16.5186 0.796875C16.2363 0.796875 15.896 0.879883 15.5142 1.0293L1.23682 6.49951C0.539551 6.76514 0 7.18848 0 7.79443C0 8.55811 0.581055 8.81543 1.37793 9.05615L5.86035 10.4175C6.3916 10.5835 6.69043 10.5669 7.04736 10.2349L16.1533 1.72656C16.2612 1.62695 16.3857 1.64355 16.4688 1.71826C16.5518 1.80127 16.5601 1.92578 16.4604 2.03369L7.98535 11.1729C7.66162 11.5132 7.63672 11.7954 7.79443 12.3516L9.11426 16.7344C9.36328 17.5728 9.62061 18.187 10.3926 18.187Z" fill="black" fill-opacity="0.85"/>
 </g>
</svg>
