<?xml version="1.0" encoding="UTF-8"?>
<!--Generator: Apple Native CoreSVG 326-->
<!DOCTYPE svg
PUBLIC "-//W3C//DTD SVG 1.1//EN"
       "http://www.w3.org/Graphics/SVG/1.1/DTD/svg11.dtd">
<svg version="1.1" xmlns="http://www.w3.org/2000/svg" xmlns:xlink="http://www.w3.org/1999/xlink" viewBox="0 0 19.2019 18.8367">
 <g>
  <rect height="18.8367" opacity="0" width="19.2019" x="0" y="0"/>
  <path d="M0.930791 11.2487L7.57972 17.8976C8.80823 19.1261 10.0201 19.1344 11.2404 17.9225L17.9225 11.2321C19.1344 10.0201 19.1261 8.79993 17.8976 7.57142L11.257 0.930791C10.0284-0.297725 8.81653-0.314326 7.59632 0.905889L0.905889 7.58802C-0.314326 8.80823-0.297725 10.0201 0.930791 11.2487ZM1.89368 10.3273C1.29603 9.72962 1.28772 9.10706 1.90198 8.4928L8.4928 1.90198C9.10706 1.28772 9.72962 1.29603 10.3273 1.89368L16.9347 8.5011C17.5241 9.09046 17.5407 9.72132 16.9264 10.3356L10.3356 16.9264C9.72132 17.5407 9.09046 17.5241 8.5011 16.943Z" fill="black" fill-opacity="0.85"/>
  <path d="M5.57093 9.41419C5.57093 9.82093 5.86146 10.0949 6.28479 10.0949L8.72522 10.0949L8.72522 12.5436C8.72522 12.9586 9.00745 13.2492 9.40589 13.2492C9.82923 13.2492 10.1115 12.9669 10.1115 12.5436L10.1115 10.0949L12.5602 10.0949C12.9752 10.0949 13.2658 9.82093 13.2658 9.41419C13.2658 8.99915 12.9835 8.70862 12.5602 8.70862L10.1115 8.70862L10.1115 6.26819C10.1115 5.84485 9.82923 5.55433 9.40589 5.55433C9.00745 5.55433 8.72522 5.84485 8.72522 6.26819L8.72522 8.70862L6.28479 8.70862C5.86146 8.70862 5.57093 8.99915 5.57093 9.41419Z" fill="black" fill-opacity="0.85"/>
 </g>
</svg>
