<?xml version="1.0" encoding="UTF-8"?>
<!--Generator: Apple Native CoreSVG 326-->
<!DOCTYPE svg
PUBLIC "-//W3C//DTD SVG 1.1//EN"
       "http://www.w3.org/Graphics/SVG/1.1/DTD/svg11.dtd">
<svg version="1.1" xmlns="http://www.w3.org/2000/svg" xmlns:xlink="http://www.w3.org/1999/xlink" viewBox="0 0 14.0698 13.7046">
 <g>
  <rect height="13.7046" opacity="0" width="14.0698" x="0" y="0"/>
  <path d="M0 6.84814C0 7.25488 0.340332 7.58691 0.73877 7.58691L6.10938 7.58691L6.10938 12.9575C6.10938 13.356 6.44141 13.6963 6.84814 13.6963C7.25488 13.6963 7.59521 13.356 7.59521 12.9575L7.59521 7.58691L12.9575 7.58691C13.356 7.58691 13.6963 7.25488 13.6963 6.84814C13.6963 6.44141 13.356 6.10107 12.9575 6.10107L7.59521 6.10107L7.59521 0.73877C7.59521 0.340332 7.25488 0 6.84814 0C6.44141 0 6.10938 0.340332 6.10938 0.73877L6.10938 6.10107L0.73877 6.10107C0.340332 6.10107 0 6.44141 0 6.84814Z" fill="white" fill-opacity="0.85"/>
 </g>
</svg>
