<?xml version="1.0" encoding="UTF-8"?>
<!--Generator: Apple Native CoreSVG 326-->
<!DOCTYPE svg
PUBLIC "-//W3C//DTD SVG 1.1//EN"
       "http://www.w3.org/Graphics/SVG/1.1/DTD/svg11.dtd">
<svg version="1.1" xmlns="http://www.w3.org/2000/svg" xmlns:xlink="http://www.w3.org/1999/xlink" viewBox="0 0 10.4258 13.6905">
 <g>
  <rect height="13.6905" opacity="0" width="10.4258" x="0" y="0"/>
  <path d="M0 4.85596C0 5.16234 0.252261 5.4146 0.558644 5.4146L4.46333 5.4146L4.46333 9.18705C4.46333 9.49028 4.71302 9.73682 5.02197 9.73682C5.33093 9.73682 5.58634 9.49028 5.58634 9.18705L5.58634 5.4146L9.4936 5.4146C9.80256 5.4146 10.0522 5.16234 10.0522 4.85596C10.0522 4.547 9.80256 4.28901 9.4936 4.28901L5.58634 4.28901L5.58634 0.55549C5.58634 0.246534 5.33093 0 5.02197 0C4.71302 0 4.46333 0.246534 4.46333 0.55549L4.46333 4.28901L0.558644 4.28901C0.252261 4.28901 0 4.547 0 4.85596ZM0 13.1261C0 13.4382 0.257989 13.6905 0.558644 13.6905L9.4936 13.6905C9.79683 13.6905 10.0522 13.4382 10.0522 13.1261C10.0522 12.8172 9.79683 12.5649 9.4936 12.5649L0.558644 12.5649C0.257989 12.5649 0 12.8172 0 13.1261Z" fill="black" fill-opacity="0.85"/>
 </g>
</svg>
