<?xml version="1.0" encoding="UTF-8"?>
<!--Generator: Apple Native CoreSVG 326-->
<!DOCTYPE svg
PUBLIC "-//W3C//DTD SVG 1.1//EN"
       "http://www.w3.org/Graphics/SVG/1.1/DTD/svg11.dtd">
<svg version="1.1" xmlns="http://www.w3.org/2000/svg" xmlns:xlink="http://www.w3.org/1999/xlink" viewBox="0 0 9.39648 15.896">
 <g>
  <rect height="15.896" opacity="0" width="9.39648" x="0" y="0"/>
  <path d="M4.10889 11.3555C4.68994 11.3555 4.95557 10.957 4.95557 10.4258C4.95557 10.3345 4.95557 10.2349 4.95557 10.1436C4.97217 9.04785 5.3623 8.59131 6.69043 7.67822C8.11816 6.71533 9.02295 5.60303 9.02295 4.00098C9.02295 1.51074 6.99756 0.0830078 4.47412 0.0830078C2.59814 0.0830078 0.95459 0.971191 0.249023 2.57324C0.074707 2.96338 0 3.34521 0 3.66064C0 4.13379 0.273926 4.46582 0.780273 4.46582C1.20361 4.46582 1.48584 4.2168 1.61035 3.81006C2.03369 2.23291 3.07959 1.63525 4.41602 1.63525C6.03467 1.63525 7.30469 2.54834 7.30469 3.99268C7.30469 5.17969 6.56592 5.84375 5.50342 6.59082C4.2002 7.49561 3.24561 8.4668 3.24561 9.92773C3.24561 10.1021 3.24561 10.2764 3.24561 10.4507C3.24561 10.9819 3.53613 11.3555 4.10889 11.3555ZM4.10889 15.896C4.77295 15.896 5.2959 15.3647 5.2959 14.7173C5.2959 14.0615 4.77295 13.5386 4.10889 13.5386C3.46143 13.5386 2.93018 14.0615 2.93018 14.7173C2.93018 15.3647 3.46143 15.896 4.10889 15.896Z" fill="black" fill-opacity="0.85"/>
 </g>
</svg>
