<?xml version="1.0" encoding="UTF-8"?>
<!--Generator: Apple Native CoreSVG 326-->
<!DOCTYPE svg
PUBLIC "-//W3C//DTD SVG 1.1//EN"
       "http://www.w3.org/Graphics/SVG/1.1/DTD/svg11.dtd">
<svg version="1.1" xmlns="http://www.w3.org/2000/svg" xmlns:xlink="http://www.w3.org/1999/xlink" viewBox="0 0 15.5142 18.187">
 <g>
  <rect height="18.187" opacity="0" width="15.5142" x="0" y="0"/>
  <path d="M8.23437 14.4497C8.75549 14.6425 9.17302 15.0583 9.36911 15.5806L14.4683 15.5806C14.8335 15.5806 15.1406 15.8794 15.1406 16.2446C15.1406 16.6099 14.8335 16.917 14.4683 16.917L9.37669 16.917C9.10711 17.6542 8.39452 18.187 7.57031 18.187C6.73961 18.187 6.02561 17.6542 5.75573 16.917L0.664062 16.917C0.298828 16.917 0 16.6099 0 16.2446C0 15.8794 0.298828 15.5806 0.664062 15.5806L5.76331 15.5806C5.95914 15.0596 6.37588 14.6446 6.89795 14.4512L6.89795 12.4346L8.23437 12.4346Z" fill="white" fill-opacity="0.85"/>
  <path d="M2.60645 12.4346L12.5342 12.4346C14.269 12.4346 15.1406 11.5713 15.1406 9.86133L15.1406 2.58154C15.1406 0.871582 14.269 0.00830078 12.5342 0.00830078L2.60645 0.00830078C0.863281 0.00830078 0 0.871582 0 2.58154L0 9.86133C0 11.5713 0.863281 12.4346 2.60645 12.4346ZM2.62305 11.0981C1.80957 11.0981 1.33643 10.6582 1.33643 9.79492L1.33643 2.64795C1.33643 1.79297 1.80957 1.34473 2.62305 1.34473L12.5093 1.34473C13.3311 1.34473 13.8042 1.79297 13.8042 2.64795L13.8042 9.79492C13.8042 10.6582 13.3311 11.0981 12.5093 11.0981Z" fill="white" fill-opacity="0.85"/>
 </g>
</svg>
