<svg width="248" height="250" viewBox="0 0 248 250" fill="none" xmlns="http://www.w3.org/2000/svg">
<path d="M0 100.997C0 156.685 45.3096 201.994 100.997 201.994C123.019 201.994 143.143 194.907 159.723 183.01L221.992 245.405C224.903 248.316 228.699 249.708 232.749 249.708C241.356 249.708 247.304 243.254 247.304 234.774C247.304 230.724 245.785 227.054 243.128 224.396L181.238 162.127C194.274 145.168 201.994 124.032 201.994 100.997C201.994 45.3096 156.686 0 100.997 0C45.3096 0 0 45.3096 0 100.997ZM21.6422 100.997C21.6422 57.2064 57.2064 21.6422 100.997 21.6422C144.788 21.6422 180.352 57.2064 180.352 100.997C180.352 144.788 144.788 180.352 100.997 180.352C57.2064 180.352 21.6422 144.788 21.6422 100.997Z" fill="black" fill-opacity="0.85"/>
<path d="M80.1605 96.3807C75.5964 96.3807 71.9629 92.7029 71.9629 88.1388C71.9629 83.5747 75.5964 79.9412 80.1605 79.9412C84.7246 79.9412 88.4025 83.5747 88.4025 88.1388C88.4025 92.7029 84.7246 96.3807 80.1605 96.3807ZM80.1605 127.576C75.5964 127.576 71.9629 123.898 71.9629 119.334C71.9629 114.77 75.5964 111.092 80.1605 111.092C84.7246 111.092 88.4025 114.77 88.4025 119.334C88.4025 123.898 84.7246 127.576 80.1605 127.576ZM120.883 142.287C117.427 142.287 114.546 140.471 111.489 136.438C104.443 127 101.297 115.789 101.297 101.92C101.297 88.0059 104.532 76.6178 111.223 67.8441C114.325 63.8118 117.161 62.0393 120.617 62.0393C123.63 62.0393 125.979 63.9447 125.979 66.3818C125.979 67.6226 125.624 68.5088 124.915 70.2369C119.642 81.4478 117.515 90.9304 117.515 101.875C117.515 113.263 120.44 123.943 125.181 134.09C125.979 135.774 126.245 136.704 126.245 137.945C126.245 140.338 123.94 142.287 120.883 142.287Z" fill="black" fill-opacity="0.85"/>
</svg>
