<?xml version="1.0" encoding="UTF-8"?>
<!--Generator: Apple Native CoreSVG 326-->
<!DOCTYPE svg
PUBLIC "-//W3C//DTD SVG 1.1//EN"
       "http://www.w3.org/Graphics/SVG/1.1/DTD/svg11.dtd">
<svg version="1.1" xmlns="http://www.w3.org/2000/svg" xmlns:xlink="http://www.w3.org/1999/xlink" viewBox="0 0 17.9961 17.6392">
 <g>
  <rect height="17.6392" opacity="0" width="17.9961" x="0" y="0"/>
  <path d="M0 4.01758C0 4.51562 0.332031 4.83936 0.84668 4.83936L1.87598 4.83936L1.87598 2.1582C1.87598 1.63525 1.43604 1.24512 0.937988 1.24512C0.439941 1.23682 0 1.62695 0 2.1582ZM2.1499 0C2.79736 0.365234 3.00488 0.85498 3.00488 1.74316L3.00488 15.4644C3.00488 16.6348 3.67725 17.3071 4.69824 17.3071C5.64453 17.3071 6.27539 16.6597 6.27539 15.5308L6.27539 13.2397C6.27539 12.1108 6.79004 11.5298 7.92725 11.5298L15.9209 11.5298L15.9209 2.60645C15.9209 0.871582 15.0576 0 13.3477 0ZM6.20898 4.33301C6.20898 4.05078 6.43311 3.82666 6.73193 3.82666L12.4429 3.82666C12.7417 3.82666 12.9575 4.05078 12.9575 4.33301C12.9575 4.62354 12.7417 4.84766 12.4429 4.84766L6.73193 4.84766C6.43311 4.84766 6.20898 4.62354 6.20898 4.33301ZM6.20898 7.24658C6.20898 6.95605 6.43311 6.72363 6.73193 6.72363L9.71191 6.72363C10.0107 6.72363 10.2266 6.95605 10.2266 7.24658C10.2266 7.52881 10.0107 7.74463 9.71191 7.74463L6.73193 7.74463C6.43311 7.74463 6.20898 7.52881 6.20898 7.24658ZM6.61572 17.6309L15.0078 17.6309C16.585 17.6309 17.6226 16.5518 17.6226 14.9165L17.6226 13.4888C17.6226 12.9907 17.2905 12.6587 16.7759 12.6587L8.25928 12.6587C7.74463 12.6587 7.4043 12.9907 7.4043 13.4888L7.4043 15.1157C7.4043 16.0703 7.27979 16.917 6.61572 17.6309Z" fill="white" fill-opacity="0.85"/>
 </g>
</svg>
