<?xml version="1.0" encoding="UTF-8"?>
<!--Generator: Apple Native CoreSVG 326-->
<!DOCTYPE svg
PUBLIC "-//W3C//DTD SVG 1.1//EN"
       "http://www.w3.org/Graphics/SVG/1.1/DTD/svg11.dtd">
<svg version="1.1" xmlns="http://www.w3.org/2000/svg" xmlns:xlink="http://www.w3.org/1999/xlink" viewBox="0 0 17.3071 16.9419">
 <g>
  <rect height="16.9419" opacity="0" width="17.3071" x="0" y="0"/>
  <path d="M8.4668 16.9336C13.1401 16.9336 16.9336 13.1401 16.9336 8.4668C16.9336 3.79346 13.1401 0 8.4668 0C3.79346 0 0 3.79346 0 8.4668C0 13.1401 3.79346 16.9336 8.4668 16.9336ZM8.4668 15.5225C4.56543 15.5225 1.41113 12.3682 1.41113 8.4668C1.41113 4.56543 4.56543 1.41113 8.4668 1.41113C12.3682 1.41113 15.5225 4.56543 15.5225 8.4668C15.5225 12.3682 12.3682 15.5225 8.4668 15.5225Z" fill="white" fill-opacity="0.85"/>
  <path d="M5.56982 12.0693C5.80225 12.0693 5.97656 11.978 6.15918 11.7954L11.7373 6.13428C11.9116 5.95996 12.0195 5.75244 12.0195 5.56152C12.0195 5.17139 11.7041 4.87256 11.3223 4.87256C11.123 4.87256 10.9321 4.96387 10.7495 5.14648L5.17969 10.8076C4.99707 10.9902 4.89746 11.1895 4.89746 11.3887C4.89746 11.7622 5.17139 12.0693 5.56982 12.0693Z" fill="white" fill-opacity="0.85"/>
 </g>
</svg>
