<?xml version="1.0" encoding="UTF-8"?>
<!--Generator: Apple Native CoreSVG 326-->
<!DOCTYPE svg
PUBLIC "-//W3C//DTD SVG 1.1//EN"
       "http://www.w3.org/Graphics/SVG/1.1/DTD/svg11.dtd">
<svg version="1.1" xmlns="http://www.w3.org/2000/svg" xmlns:xlink="http://www.w3.org/1999/xlink" viewBox="0 0 26.0728 17.3735">
 <g>
  <rect height="17.3735" opacity="0" width="26.0728" x="0" y="0"/>
  <path d="M1.98389 13.5552L7.74463 13.5552C8.98975 13.5552 9.72852 12.8247 9.72852 11.6045L9.72852 5.77734C9.72852 4.56543 8.98975 3.82666 7.74463 3.82666L1.98389 3.82666C0.73877 3.82666 0 4.56543 0 5.77734L0 11.6045C0 12.8247 0.73877 13.5552 1.98389 13.5552ZM2.00879 12.3018C1.53564 12.3018 1.25342 12.0112 1.25342 11.5381L1.25342 5.85205C1.25342 5.37891 1.53564 5.08008 2.00879 5.08008L7.71973 5.08008C8.19287 5.08008 8.4751 5.37891 8.4751 5.85205L8.4751 11.5381C8.4751 12.0112 8.19287 12.3018 7.71973 12.3018Z" fill="white" fill-opacity="0.85"/>
  <path d="M12.8496 17.3735C13.2148 17.3735 13.4639 17.1411 13.4639 16.7925L13.4639 0.589355C13.4639 0.249023 13.2148 0.0166016 12.8496 0.0166016C12.4844 0.0166016 12.2437 0.249023 12.2437 0.589355L12.2437 16.7925C12.2437 17.1411 12.4844 17.3735 12.8496 17.3735ZM17.9546 13.5552L23.7153 13.5552C24.9604 13.5552 25.6992 12.8247 25.6992 11.6045L25.6992 5.77734C25.6992 4.56543 24.9604 3.82666 23.7153 3.82666L17.9546 3.82666C16.7095 3.82666 15.9707 4.56543 15.9707 5.77734L15.9707 11.6045C15.9707 12.8247 16.7095 13.5552 17.9546 13.5552Z" fill="white" fill-opacity="0.85"/>
 </g>
</svg>
