<?xml version="1.0" encoding="UTF-8"?>
<!--Generator: Apple Native CoreSVG 326-->
<!DOCTYPE svg
PUBLIC "-//W3C//DTD SVG 1.1//EN"
       "http://www.w3.org/Graphics/SVG/1.1/DTD/svg11.dtd">
<svg version="1.1" xmlns="http://www.w3.org/2000/svg" xmlns:xlink="http://www.w3.org/1999/xlink" viewBox="0 0 19.4529 19.9551">
 <g>
  <rect height="19.9551" opacity="0" width="19.4529" x="0" y="0"/>
  <path d="M4.74474 13.0024L2.93225 14.0408C2.89075 14.0574 2.86584 14.0823 2.86584 14.1155C2.86584 14.157 2.89075 14.1819 2.93225 14.1985L9.24915 17.8176C9.38196 17.8924 9.49817 17.9339 9.61438 17.9339C9.73059 17.9339 9.8468 17.8924 9.97961 17.8176L13.5187 15.79L14.5291 16.7994L10.6686 19.0379C10.2701 19.2703 9.94641 19.3782 9.61438 19.3782C9.28235 19.3782 8.95862 19.2703 8.56018 19.0379L2.06067 15.2693C1.39661 14.8792 1.13098 14.572 1.13098 14.1155C1.13098 13.6673 1.39661 13.3601 2.06067 12.97L3.3763 12.2072ZM17.1681 12.97C17.8322 13.3601 18.0978 13.6673 18.0978 14.1155C18.0978 14.5137 17.8957 14.7982 17.4032 15.1233L14.9881 12.7094L15.8525 12.2072Z" fill="white" fill-opacity="0.85"/>
  <path d="M4.97327 9.04745L2.93225 10.2141C2.89075 10.2307 2.86584 10.2556 2.86584 10.2971C2.86584 10.3386 2.89075 10.3552 2.93225 10.3801L9.24915 13.991C9.38196 14.0657 9.49817 14.1072 9.61438 14.1072C9.73059 14.1072 9.8468 14.0657 9.97961 13.991L11.0852 13.359L12.1094 14.3822L10.6686 15.2195C10.2701 15.4519 9.94641 15.5598 9.61438 15.5598C9.28235 15.5598 8.95862 15.4519 8.56018 15.2195L2.06067 11.4426C1.39661 11.0525 1.13098 10.7537 1.13098 10.2971C1.13098 9.8406 1.39661 9.54177 2.06067 9.14333L3.59965 8.251ZM17.1681 9.14333C17.8322 9.54177 18.0978 9.8406 18.0978 10.2971C18.0978 10.7537 17.8322 11.0525 17.1681 11.4426L14.9881 12.7094L13.9815 11.7034L16.2965 10.3801C16.338 10.3552 16.3629 10.3386 16.3629 10.2971C16.3629 10.2556 16.338 10.2307 16.2965 10.2141L14.2555 9.04745L15.6291 8.251Z" fill="white" fill-opacity="0.85"/>
  <path d="M3.51475 5.79641L2.93225 6.13015C2.89075 6.14675 2.86584 6.17165 2.86584 6.20485C2.86584 6.24636 2.89075 6.27126 2.93225 6.28786L5.45164 7.73129L9.10666 11.3825C8.93613 11.3267 8.7573 11.2422 8.56018 11.1272L2.06067 7.35866C1.39661 6.96853 1.13098 6.6614 1.13098 6.20485C1.13098 5.75661 1.39661 5.44948 2.06067 5.05935L2.51387 4.79657ZM10.6686 1.29079L17.1681 5.05935C17.8322 5.44948 18.0978 5.75661 18.0978 6.20485C18.0978 6.6614 17.8322 6.96853 17.1681 7.35866L12.4004 10.1231L11.3809 9.10415L16.2965 6.28786C16.338 6.27126 16.3629 6.24636 16.3629 6.20485C16.3629 6.17165 16.338 6.14675 16.2965 6.13015L9.97961 2.51101C9.8468 2.4363 9.73059 2.3948 9.61438 2.3948C9.49817 2.3948 9.38196 2.4363 9.24915 2.51101L6.41118 4.13697L5.39799 3.1243L8.56018 1.29079C8.95862 1.05837 9.28235 0.95046 9.61438 0.95046C9.94641 0.95046 10.2701 1.05837 10.6686 1.29079Z" fill="white" fill-opacity="0.85"/>
  <path d="M17.2179 18.1082C17.4669 18.3572 17.8737 18.3572 18.1227 18.1082C18.3634 17.8592 18.3717 17.4524 18.1227 17.2034L2.06897 1.15798C1.81995 0.908956 1.40491 0.908956 1.15588 1.15798C0.90686 1.3987 0.90686 1.82204 1.15588 2.06276Z" fill="white" fill-opacity="0.85"/>
 </g>
</svg>
