<?xml version="1.0" encoding="UTF-8"?>
<!--Generator: Apple Native CoreSVG 326-->
<!DOCTYPE svg
PUBLIC "-//W3C//DTD SVG 1.1//EN"
       "http://www.w3.org/Graphics/SVG/1.1/DTD/svg11.dtd">
<svg version="1.1" xmlns="http://www.w3.org/2000/svg" xmlns:xlink="http://www.w3.org/1999/xlink" viewBox="0 0 18.1815 17.8563">
 <g>
  <rect height="17.8563" opacity="0" width="18.1815" x="0" y="0"/>
  <path d="M8.90682 3.01543C9.2069 3.01543 9.45086 2.77147 9.45086 2.46566L9.45086 0.549762C9.45086 0.241387 9.2069 0 8.90682 0C8.60102 0 8.35706 0.241387 8.35706 0.549762L8.35706 2.46566C8.35706 2.77147 8.60102 3.01543 8.90682 3.01543ZM13.072 4.75311C13.2899 4.96013 13.6358 4.96843 13.8511 4.75311L15.2112 3.39303C15.4208 3.18343 15.4182 2.83181 15.2112 2.61392C14.999 2.40689 14.6474 2.40432 14.4378 2.61392L13.072 3.97973C12.8624 4.18932 12.865 4.54094 13.072 4.75311ZM14.8008 8.924C14.8008 9.22408 15.0479 9.46804 15.348 9.46804L17.2639 9.46804C17.5665 9.46804 17.8079 9.22408 17.8079 8.924C17.8079 8.62393 17.5665 8.37424 17.2639 8.37424L15.348 8.37424C15.0479 8.37424 14.8008 8.62393 14.8008 8.924ZM13.072 13.0949C12.865 13.3128 12.8624 13.6587 13.072 13.8683L14.4378 15.2398C14.6474 15.4494 14.999 15.4328 15.2112 15.2341C15.4182 15.0136 15.4208 14.6703 15.2112 14.4607L13.8454 13.0949C13.6358 12.8853 13.2899 12.8936 13.072 13.0949ZM8.90682 14.8326C8.60102 14.8326 8.35706 15.0765 8.35706 15.3766L8.35706 17.2982C8.35706 17.5983 8.60102 17.8423 8.90682 17.8423C9.2069 17.8423 9.45086 17.5983 9.45086 17.2982L9.45086 15.3766C9.45086 15.0765 9.2069 14.8326 8.90682 14.8326ZM4.73593 13.0949C4.51803 12.8936 4.16641 12.8853 3.95682 13.0949L2.59673 14.455C2.38714 14.6646 2.39228 15.0079 2.59101 15.2284C2.80575 15.4271 3.16052 15.4437 3.37012 15.2341L4.7302 13.8683C4.9398 13.6587 4.93722 13.3128 4.73593 13.0949ZM3.0097 8.924C3.0097 8.62393 2.76001 8.37424 2.45994 8.37424L0.544035 8.37424C0.241387 8.37424 0 8.62393 0 8.924C0 9.22408 0.241387 9.46804 0.544035 9.46804L2.45994 9.46804C2.76001 9.46804 3.0097 9.22408 3.0097 8.924ZM4.7302 4.75311C4.93722 4.54667 4.9398 4.18359 4.73593 3.97973L3.37585 2.61392C3.17198 2.41005 2.8172 2.40689 2.60246 2.61392C2.39801 2.83181 2.39287 3.18343 2.59673 3.3873L3.95682 4.75311C4.16641 4.96271 4.51231 4.96013 4.7302 4.75311Z" fill="black" fill-opacity="0.85"/>
  <path d="M8.89337 13.0101C11.1513 13.0101 12.9795 11.1793 12.9795 8.924C12.9795 6.66611 11.1513 4.83213 8.89337 4.83213C6.63805 4.83213 4.8098 6.66611 4.8098 8.924C4.8098 11.1793 6.63805 13.0101 8.89337 13.0101ZM8.89337 12.0315C7.17262 12.0315 5.7859 10.6448 5.7859 8.924C5.7859 7.20068 7.17262 5.8108 8.89337 5.8108C10.6167 5.8108 12.0034 7.20068 12.0034 8.924C12.0034 10.6448 10.6167 12.0315 8.89337 12.0315Z" fill="black" fill-opacity="0.85"/>
 </g>
</svg>
