<?xml version="1.0" encoding="UTF-8"?>
<!--Generator: Apple Native CoreSVG 326-->
<!DOCTYPE svg
PUBLIC "-//W3C//DTD SVG 1.1//EN"
       "http://www.w3.org/Graphics/SVG/1.1/DTD/svg11.dtd">
<svg version="1.1" xmlns="http://www.w3.org/2000/svg" xmlns:xlink="http://www.w3.org/1999/xlink" viewBox="0 0 16.2031 15.6968">
 <g>
  <rect height="15.6968" opacity="0" width="16.2031" x="0" y="0"/>
  <path d="M3.55273 15.6719L12.2769 15.6719C14.2441 15.6719 15.8296 14.2939 15.8296 12.2603C15.8296 10.2266 14.2441 8.84863 12.2769 8.84863L3.55273 8.84863C1.58545 8.84863 0 10.2266 0 12.2603C0 14.2939 1.58545 15.6719 3.55273 15.6719ZM12.4927 14.4185C11.2891 14.4102 10.3428 13.4473 10.3428 12.252C10.3428 11.0649 11.2974 10.1021 12.4927 10.1021C13.688 10.1021 14.6592 11.0566 14.6509 12.2437C14.6426 13.4473 13.6797 14.4268 12.4927 14.4185Z" fill="white" fill-opacity="0.85"/>
  <path d="M3.89307 5.75244C4.98877 5.76074 5.86035 4.86426 5.86865 3.76855C5.87695 2.68115 4.98877 1.80957 3.89307 1.80957C2.79736 1.80957 1.92578 2.68945 1.92578 3.77686C1.92578 4.87256 2.79736 5.74414 3.89307 5.75244Z" fill="white" fill-opacity="0.85"/>
  <path d="M3.89307 7.57031L11.9365 7.57031C14.0781 7.57031 15.8296 6.04297 15.8296 3.78516C15.8296 1.52734 14.0781 0 11.9365 0L3.89307 0C1.75146 0 0 1.52734 0 3.78516C0 6.04297 1.75146 7.57031 3.89307 7.57031ZM3.89307 6.31689C2.49854 6.31689 1.25342 5.2959 1.25342 3.78516C1.25342 2.27441 2.49854 1.25342 3.89307 1.25342L11.9365 1.25342C13.3311 1.25342 14.5762 2.27441 14.5762 3.78516C14.5762 5.2959 13.3311 6.31689 11.9365 6.31689Z" fill="white" fill-opacity="0.85"/>
 </g>
</svg>
