<?xml version="1.0" encoding="UTF-8"?>
<!--Generator: Apple Native CoreSVG 326-->
<!DOCTYPE svg
PUBLIC "-//W3C//DTD SVG 1.1//EN"
       "http://www.w3.org/Graphics/SVG/1.1/DTD/svg11.dtd">
<svg version="1.1" xmlns="http://www.w3.org/2000/svg" xmlns:xlink="http://www.w3.org/1999/xlink" viewBox="0 0 14.0987 17.6959">
 <g>
  <rect height="17.6959" opacity="0" width="14.0987" x="0" y="0"/>
  <path d="M2.42657 17.6959L11.2986 17.6959C12.9088 17.6959 13.7252 16.8681 13.7252 15.2522L13.7252 7.46548C13.7252 6.56708 13.6058 6.17171 13.0524 5.60684L8.18017 0.677345C7.6471 0.135386 7.21164 0.00456533 6.40804 0.00456533L2.42657 0.00456533C0.829829 0.00456533 0 0.83813 0 2.45404L0 15.2522C0 16.8738 0.816382 17.6959 2.42657 17.6959ZM2.47181 16.6683C1.51904 16.6683 1.02764 16.1654 1.02764 15.2299L1.02764 2.47637C1.02764 1.55939 1.51904 1.0322 2.47754 1.0322L6.36437 1.0322L6.36437 6.02994C6.36437 6.98063 6.83843 7.42837 7.76024 7.42837L12.6975 7.42837L12.6975 15.2299C12.6975 16.1654 12.2061 16.6683 11.2476 16.6683ZM7.8659 6.45543C7.48241 6.45543 7.33474 6.30461 7.33474 5.91854L7.33474 1.24064L12.4891 6.45543Z" fill="black" fill-opacity="0.85"/>
  <path d="M10.0717 10.0539L3.55008 10.0539C3.31044 10.0539 3.13006 10.2343 3.13006 10.4599C3.13006 10.6912 3.31044 10.8716 3.55008 10.8716L10.0717 10.8716C10.3056 10.8716 10.4802 10.6912 10.4802 10.4599C10.4802 10.2343 10.3056 10.0539 10.0717 10.0539ZM10.0717 12.9663L3.55008 12.9663C3.31044 12.9663 3.13006 13.1524 3.13006 13.3838C3.13006 13.6094 3.31044 13.784 3.55008 13.784L10.0717 13.784C10.3056 13.784 10.4802 13.6094 10.4802 13.3838C10.4802 13.1524 10.3056 12.9663 10.0717 12.9663Z" fill="black" fill-opacity="0.85"/>
 </g>
</svg>
