<?xml version="1.0" encoding="UTF-8"?>
<!--Generator: Apple Native CoreSVG 326-->
<!DOCTYPE svg
PUBLIC "-//W3C//DTD SVG 1.1//EN"
       "http://www.w3.org/Graphics/SVG/1.1/DTD/svg11.dtd">
<svg version="1.1" xmlns="http://www.w3.org/2000/svg" xmlns:xlink="http://www.w3.org/1999/xlink" viewBox="0 0 20.1709 17.1411">
 <g>
  <rect height="17.1411" opacity="0" width="20.1709" x="0" y="0"/>
  <path d="M2.51514 17.1411L15.8628 17.1411C17.5312 17.1411 18.3696 16.3027 18.3696 14.6675L18.3696 12.2686L17.0249 12.2686L17.0249 14.5928C17.0249 15.3979 16.5933 15.7964 15.8379 15.7964L2.53174 15.7964C1.76807 15.7964 1.35303 15.3979 1.35303 14.5928L1.35303 6.15088C1.35303 5.354 1.76807 4.93896 2.53174 4.93896L15.8379 4.93896C16.5933 4.93896 17.0249 5.354 17.0249 6.15088L17.0249 8.16797L18.3696 8.16797L18.3696 6.07617C18.3696 4.44092 17.5312 3.59424 15.8628 3.59424L6.64062 3.59424C6.49951 3.59424 6.48291 3.46143 6.63232 3.42822L13.0488 1.65186C13.8457 1.41943 14.2607 1.70996 14.2607 2.44043L14.2607 4.16699L15.6138 4.05078L15.6138 2.55664C15.6138 0.597656 14.269-0.00830078 12.4512 0.514648L1.80957 3.61084C0.564453 3.98438 0 4.73975 0 6.07617L0 14.6675C0 16.311 0.85498 17.1411 2.51514 17.1411ZM15.124 11.1895C15.5889 11.1895 15.9624 10.8159 15.9624 10.3511C15.9624 9.88623 15.5889 9.5127 15.124 9.5127C14.6592 9.5127 14.2856 9.88623 14.2856 10.3511C14.2856 10.8159 14.6592 11.1895 15.124 11.1895ZM15.041 12.9658L18.1123 12.9658C19.1499 12.9658 19.7974 12.2354 19.7974 11.2808L19.7974 9.43799C19.7974 8.4834 19.1499 7.76123 18.1123 7.76123L15.041 7.76123C13.3643 7.76123 12.2437 8.62451 12.2437 10.3594C12.2437 12.1025 13.3643 12.9658 15.041 12.9658ZM15.124 11.8535C13.9619 11.8535 13.4141 11.2891 13.4141 10.3594C13.4141 9.42969 13.9619 8.86523 15.124 8.86523L17.8218 8.86523C18.3945 8.86523 18.6934 9.18896 18.6934 9.72852L18.6934 10.9902C18.6934 11.5298 18.3945 11.8535 17.8218 11.8535Z" fill="white" fill-opacity="0.85"/>
 </g>
</svg>
