<?xml version="1.0" encoding="UTF-8"?>
<!--Generator: Apple Native CoreSVG 326-->
<!DOCTYPE svg
PUBLIC "-//W3C//DTD SVG 1.1//EN"
       "http://www.w3.org/Graphics/SVG/1.1/DTD/svg11.dtd">
<svg version="1.1" xmlns="http://www.w3.org/2000/svg" xmlns:xlink="http://www.w3.org/1999/xlink" viewBox="0 0 17.8218 12.9243">
 <g>
  <rect height="12.9243" opacity="0" width="17.8218" x="0" y="0"/>
  <path d="M8.72412 2.85547C10.9819 2.85547 11.3472 1.17041 12.667 1.17041C14.0117 1.17041 14.2275 2.85547 16.8174 2.85547L16.8589 2.85547C17.1826 2.85547 17.4482 2.58984 17.4482 2.26611C17.4482 1.94238 17.1826 1.68506 16.8589 1.68506L16.8174 1.68506C15.9209 1.68506 15.4229 1.31152 14.8003 0.871582C14.2607 0.481445 13.5884 0 12.667 0C11.7124 0 11.0317 0.506348 10.4922 0.913086C9.91943 1.34473 9.46289 1.68506 8.72412 1.68506C7.97705 1.68506 7.52881 1.34473 6.95605 0.913086C6.4165 0.506348 5.73584 0 4.78125 0C3.85986 0 3.1875 0.481445 2.64795 0.871582C2.02539 1.31152 1.51904 1.68506 0.630859 1.68506L0.589355 1.68506C0.257324 1.68506 0 1.94238 0 2.26611C0 2.58984 0.257324 2.85547 0.589355 2.85547L0.630859 2.85547C3.2124 2.85547 3.43652 1.17041 4.78125 1.17041C6.10107 1.17041 6.45801 2.85547 8.72412 2.85547Z" fill="black" fill-opacity="0.85"/>
  <path d="M8.72412 7.86914C10.9819 7.86914 11.3472 6.18408 12.667 6.18408C14.0117 6.18408 14.2275 7.86914 16.8174 7.86914L16.8589 7.86914C17.1826 7.86914 17.4482 7.61182 17.4482 7.28809C17.4482 6.96436 17.1826 6.69873 16.8589 6.69873L16.8174 6.69873C15.9209 6.69873 15.4229 6.3335 14.8003 5.88525C14.2607 5.49512 13.5884 5.01367 12.667 5.01367C11.7124 5.01367 11.0317 5.52832 10.4922 5.92676C9.91943 6.3584 9.46289 6.69873 8.72412 6.69873C7.97705 6.69873 7.52881 6.3584 6.95605 5.92676C6.4165 5.52832 5.73584 5.01367 4.78125 5.01367C3.85986 5.01367 3.1875 5.49512 2.64795 5.88525C2.02539 6.3335 1.51904 6.69873 0.630859 6.69873L0.589355 6.69873C0.257324 6.69873 0 6.96436 0 7.28809C0 7.61182 0.257324 7.86914 0.589355 7.86914L0.630859 7.86914C3.2124 7.86914 3.43652 6.18408 4.78125 6.18408C6.10107 6.18408 6.45801 7.86914 8.72412 7.86914Z" fill="black" fill-opacity="0.85"/>
  <path d="M8.72412 12.8911C10.9819 12.8911 11.3472 11.2061 12.667 11.2061C14.0117 11.2061 14.2275 12.8911 16.8174 12.8911L16.8589 12.8911C17.1826 12.8911 17.4482 12.6255 17.4482 12.3018C17.4482 11.978 17.1826 11.7207 16.8589 11.7207L16.8174 11.7207C15.9209 11.7207 15.4229 11.3472 14.8003 10.9072C14.2607 10.5088 13.5884 10.0356 12.667 10.0356C11.7124 10.0356 11.0317 10.542 10.4922 10.9404C9.91943 11.3804 9.46289 11.7207 8.72412 11.7207C7.97705 11.7207 7.52881 11.3804 6.95605 10.9404C6.4165 10.542 5.73584 10.0356 4.78125 10.0356C3.85986 10.0356 3.1875 10.5088 2.64795 10.9072C2.02539 11.3472 1.51904 11.7207 0.630859 11.7207L0.589355 11.7207C0.257324 11.7207 0 11.978 0 12.3018C0 12.6255 0.257324 12.8911 0.589355 12.8911L0.630859 12.8911C3.2124 12.8911 3.43652 11.2061 4.78125 11.2061C6.10107 11.2061 6.45801 12.8911 8.72412 12.8911Z" fill="black" fill-opacity="0.85"/>
 </g>
</svg>
